<?xml version="1.0" encoding="UTF-8"?>
<!DOCTYPE svg PUBLIC "-//W3C//DTD SVG 1.1//EN" "http://www.w3.org/Graphics/SVG/1.1/DTD/svg11.dtd">
<svg xmlns="http://www.w3.org/2000/svg" version="1.1" width="376px" height="376px" style="shape-rendering:geometricPrecision; text-rendering:geometricPrecision; image-rendering:optimizeQuality; fill-rule:evenodd; clip-rule:evenodd" xmlns:xlink="http://www.w3.org/1999/xlink">
<g><path style="opacity:1" fill="#095c83" d="M 168.5,26.5 C 240.491,22.8248 294.325,51.8248 330,113.5C 345.46,144.703 350.794,177.703 346,212.5C 334.608,272.526 301.108,314.693 245.5,339C 189.296,358.755 136.963,351.755 88.5,318C 43.9414,282.371 22.4414,235.871 24,178.5C 29.9712,119.352 58.4712,74.8522 109.5,45C 128.284,35.6811 147.951,29.5144 168.5,26.5 Z"/></g>
<g><path style="opacity:1" fill="#fbfcfc" d="M 176.5,52.5 C 208.795,51.052 229.629,65.7186 239,96.5C 239.333,117.167 239.667,137.833 240,158.5C 258.323,193.377 252.156,223.21 221.5,248C 196.667,262.266 172,261.933 147.5,247C 122.855,226.267 115.355,200.434 125,169.5C 126.746,165.673 128.746,162.007 131,158.5C 131.333,137.833 131.667,117.167 132,96.5C 138.125,72.8746 152.958,58.2079 176.5,52.5 Z"/></g>
<g><path style="opacity:1" fill="#0b5c83" d="M 222.5,99.5 C 222.829,113.01 222.496,126.344 221.5,139.5C 205.091,129.622 187.424,126.789 168.5,131C 161.647,132.761 155.314,135.595 149.5,139.5C 148.504,126.344 148.171,113.01 148.5,99.5C 151.989,86.1796 159.989,76.6796 172.5,71C 197.784,65.7992 214.45,75.2992 222.5,99.5 Z"/></g>
<g><path style="opacity:1" fill="#7d96a7" d="M 148.5,99.5 C 148.171,113.01 148.504,126.344 149.5,139.5C 149.44,140.043 149.107,140.376 148.5,140.5C 147.174,126.672 147.174,113.006 148.5,99.5 Z"/></g>
<g><path style="opacity:1" fill="#93a8b7" d="M 222.5,99.5 C 223.826,113.006 223.826,126.672 222.5,140.5C 221.893,140.376 221.56,140.043 221.5,139.5C 222.496,126.344 222.829,113.01 222.5,99.5 Z"/></g>
<g><path style="opacity:1" fill="#125d82" d="M 154.5,157.5 C 163.167,157.5 171.833,157.5 180.5,157.5C 180.334,165.84 180.5,174.173 181,182.5C 191.201,192.37 201.701,201.87 212.5,211C 214.363,213.364 216.029,215.864 217.5,218.5C 215.068,221.885 214.401,225.551 215.5,229.5C 209.915,231.065 204.248,231.565 198.5,231C 197.934,226.268 195.267,223.768 190.5,223.5C 190.5,222.5 190.5,221.5 190.5,220.5C 186.469,218.898 182.136,217.732 177.5,217C 176.282,211.477 173.449,206.977 169,203.5C 168.405,202.101 168.572,200.768 169.5,199.5C 167.625,198.46 166.292,196.96 165.5,195C 167.619,193.448 167.619,191.614 165.5,189.5C 164.833,189.833 164.167,190.167 163.5,190.5C 162.247,187.743 160.413,185.409 158,183.5C 157.012,180.576 156.346,177.576 156,174.5C 155.333,173.833 154.667,173.167 154,172.5C 154.251,167.544 154.418,162.544 154.5,157.5 Z"/></g>
<g><path style="opacity:1" fill="#f4f6f8" d="M 190.5,279.5 C 197.508,279.334 204.508,279.5 211.5,280C 221.749,284.99 223.749,292.323 217.5,302C 211.625,305.166 205.292,306.333 198.5,305.5C 197.514,309.97 197.181,314.637 197.5,319.5C 195.167,319.5 192.833,319.5 190.5,319.5C 190.5,306.167 190.5,292.833 190.5,279.5 Z"/></g>
<g><path style="opacity:1" fill="#eef2f5" d="M 232.5,279.5 C 235.833,279.5 239.167,279.5 242.5,279.5C 247.158,293.14 251.825,306.806 256.5,320.5C 253.5,320.5 250.5,320.5 247.5,320.5C 247.196,317.421 246.196,314.587 244.5,312C 239.511,311.501 234.511,311.334 229.5,311.5C 229.937,319.322 226.271,322.322 218.5,320.5C 223.56,306.989 228.226,293.322 232.5,279.5 Z"/></g>
<g><path style="opacity:1" fill="#f1f4f6" d="M 163.5,278.5 C 172.741,277.205 179.575,280.538 184,288.5C 184.494,290.134 184.66,291.801 184.5,293.5C 181.813,293.664 179.146,293.497 176.5,293C 175.436,286.605 171.769,284.272 165.5,286C 163.714,286.785 162.214,287.951 161,289.5C 159.43,295.053 159.097,300.719 160,306.5C 161.955,312.677 166.122,314.844 172.5,313C 174.919,311.491 175.919,309.325 175.5,306.5C 178.5,306.5 181.5,306.5 184.5,306.5C 183.851,313.982 179.851,318.482 172.5,320C 162.05,322.523 155.216,318.689 152,308.5C 151.333,302.5 151.333,296.5 152,290.5C 154.019,284.65 157.852,280.65 163.5,278.5 Z"/></g>
<g><path style="opacity:1" fill="#f0f3f6" d="M 126.5,278.5 C 137.996,277.4 144.996,282.4 147.5,293.5C 144.5,293.5 141.5,293.5 138.5,293.5C 139.437,289.27 137.771,286.77 133.5,286C 124.93,285.568 121.263,289.734 122.5,298.5C 121.799,303.953 123.132,308.787 126.5,313C 129.964,313.817 133.298,313.483 136.5,312C 137.861,310.416 138.528,308.582 138.5,306.5C 141.167,306.5 143.833,306.5 146.5,306.5C 143.906,318.312 136.572,322.812 124.5,320C 116.499,315.166 112.832,307.999 113.5,298.5C 113.069,288.62 117.402,281.954 126.5,278.5 Z"/></g>
<g><path style="opacity:1" fill="#205c7d" d="M 198.5,286.5 C 202.182,286.335 205.848,286.501 209.5,287C 213.5,290.667 213.5,294.333 209.5,298C 205.848,298.499 202.182,298.665 198.5,298.5C 198.5,294.5 198.5,290.5 198.5,286.5 Z"/></g>
<g><path style="opacity:1" fill="#235d81" d="M 236.5,290.5 C 237.497,290.47 238.164,290.97 238.5,292C 240.323,295.981 241.323,300.148 241.5,304.5C 238.833,304.5 236.167,304.5 233.5,304.5C 234.093,299.728 235.093,295.061 236.5,290.5 Z"/></g>
<g><path style="opacity:1" fill="#98b2c3" d="M 190.5,279.5 C 190.5,292.833 190.5,306.167 190.5,319.5C 192.833,319.5 195.167,319.5 197.5,319.5C 197.181,314.637 197.514,309.97 198.5,305.5C 198.5,310.5 198.5,315.5 198.5,320.5C 195.5,320.5 192.5,320.5 189.5,320.5C 189.171,306.656 189.504,292.99 190.5,279.5 Z"/></g>
</svg>
