<?xml version="1.0" encoding="UTF-8"?>
<!DOCTYPE svg PUBLIC "-//W3C//DTD SVG 1.1//EN" "http://www.w3.org/Graphics/SVG/1.1/DTD/svg11.dtd">
<svg xmlns="http://www.w3.org/2000/svg" version="1.1" width="316px" height="316px" style="shape-rendering:geometricPrecision; text-rendering:geometricPrecision; image-rendering:optimizeQuality; fill-rule:evenodd; clip-rule:evenodd" xmlns:xlink="http://www.w3.org/1999/xlink">
<g><path style="opacity:0.998" fill="#263778" d="M 139.5,-0.5 C 151.167,-0.5 162.833,-0.5 174.5,-0.5C 241.426,9.71515 286.26,46.7151 309,110.5C 311.764,120.17 313.931,129.837 315.5,139.5C 315.5,151.167 315.5,162.833 315.5,174.5C 305.285,241.426 268.285,286.26 204.5,309C 194.83,311.764 185.163,313.931 175.5,315.5C 163.833,315.5 152.167,315.5 140.5,315.5C 73.5736,305.285 28.7403,268.285 6,204.5C 3.23573,194.83 1.06906,185.163 -0.5,175.5C -0.5,163.833 -0.5,152.167 -0.5,140.5C 9.71515,73.5736 46.7151,28.7403 110.5,6C 120.17,3.23573 129.837,1.06906 139.5,-0.5 Z"/></g>
<g><path style="opacity:1" fill="#eec129" d="M 161.5,40.5 C 165.5,41.1667 169.5,41.8333 173.5,42.5C 170.546,44.2805 167.713,46.2805 165,48.5C 165.462,52.8787 166.129,57.2121 167,61.5C 163.933,58.7625 160.599,56.4292 157,54.5C 153.509,56.5814 150.175,58.9147 147,61.5C 147.527,57.4052 148.694,53.4052 150.5,49.5C 147.149,47.1414 143.815,44.8081 140.5,42.5C 144.833,41.8333 149.167,41.1667 153.5,40.5C 154.16,36.6873 155.326,33.0207 157,29.5C 158.792,33.041 160.292,36.7077 161.5,40.5 Z"/></g>
<g><path style="opacity:1" fill="#515468" d="M 153.5,40.5 C 149.167,41.1667 144.833,41.8333 140.5,42.5C 139.957,42.44 139.624,42.1067 139.5,41.5C 144.12,40.5067 148.786,40.1734 153.5,40.5 Z"/></g>
<g><path style="opacity:1" fill="#4f5368" d="M 161.5,40.5 C 165.884,40.1744 170.217,40.5078 174.5,41.5C 174.376,42.1067 174.043,42.44 173.5,42.5C 169.5,41.8333 165.5,41.1667 161.5,40.5 Z"/></g>
<g><path style="opacity:1" fill="#eec129" d="M 85.5,57.5 C 89.5,56.8333 93.5,56.1667 97.5,55.5C 98.8934,51.4898 100.393,47.4898 102,43.5C 103.684,47.7155 104.851,52.0488 105.5,56.5C 109.846,56.3343 114.179,56.501 118.5,57C 114.988,59.2567 111.654,61.7567 108.5,64.5C 110.208,68.4457 111.375,72.4457 112,76.5C 108.825,73.9147 105.491,71.5814 102,69.5C 98.4007,71.4292 95.0674,73.7625 92,76.5C 92.462,72.1213 93.1287,67.7879 94,63.5C 91.2872,61.2805 88.4539,59.2805 85.5,57.5 Z"/></g>
<g><path style="opacity:1" fill="#eec129" d="M 216.5,55.5 C 220.5,56.1667 224.5,56.8333 228.5,57.5C 225.208,59.4581 222.208,61.7915 219.5,64.5C 221.411,68.5094 222.411,72.5094 222.5,76.5C 219.516,73.6742 216.183,71.3409 212.5,69.5C 209.167,71.8333 205.833,74.1667 202.5,76.5C 202.167,76.1667 201.833,75.8333 201.5,75.5C 203.128,72.1171 204.461,68.6171 205.5,65C 202.98,61.985 199.98,59.485 196.5,57.5C 200.5,56.8333 204.5,56.1667 208.5,55.5C 209.314,51.5581 210.814,47.8914 213,44.5C 214.274,48.1537 215.44,51.8204 216.5,55.5 Z"/></g>
<g><path style="opacity:1" fill="#6b665c" d="M 97.5,55.5 C 93.5,56.1667 89.5,56.8333 85.5,57.5C 84.9569,57.44 84.6236,57.1067 84.5,56.5C 88.7828,55.5078 93.1161,55.1744 97.5,55.5 Z"/></g>
<g><path style="opacity:1" fill="#6e685b" d="M 208.5,55.5 C 204.5,56.1667 200.5,56.8333 196.5,57.5C 195.957,57.44 195.624,57.1067 195.5,56.5C 199.783,55.5078 204.116,55.1744 208.5,55.5 Z"/></g>
<g><path style="opacity:1" fill="#706a5a" d="M 216.5,55.5 C 220.884,55.1744 225.217,55.5078 229.5,56.5C 229.376,57.1067 229.043,57.44 228.5,57.5C 224.5,56.8333 220.5,56.1667 216.5,55.5 Z"/></g>
<g><path style="opacity:1" fill="#ebbf2b" d="M 60.5,84.5 C 62.6823,87.9873 64.349,91.8206 65.5,96C 69.8333,96.3333 74.1667,96.6667 78.5,97C 74.9005,99.6165 71.5672,102.45 68.5,105.5C 69.3991,108.697 70.3991,111.864 71.5,115C 71.1667,115.5 70.8333,116 70.5,116.5C 67.2444,114.289 64.0777,111.955 61,109.5C 57.6667,112.167 54.3333,114.833 51,117.5C 51.3317,113.162 52.4984,108.996 54.5,105C 51.1667,102.333 47.8333,99.6667 44.5,97C 48.8206,96.501 53.1539,96.3343 57.5,96.5C 58.4997,92.5007 59.4997,88.5007 60.5,84.5 Z"/></g>
<g><path style="opacity:1" fill="#eabe2b" d="M 252.5,84.5 C 254.682,87.9873 256.349,91.8206 257.5,96C 261.833,96.3333 266.167,96.6667 270.5,97C 266.529,99.1423 263.195,101.976 260.5,105.5C 261.399,108.697 262.399,111.864 263.5,115C 263.167,115.5 262.833,116 262.5,116.5C 259.244,114.289 256.078,111.955 253,109.5C 249.667,112.167 246.333,114.833 243,117.5C 243.332,113.162 244.498,108.996 246.5,105C 243.167,102.333 239.833,99.6667 236.5,97C 240.821,96.501 245.154,96.3343 249.5,96.5C 250.095,92.3852 251.095,88.3852 252.5,84.5 Z"/></g>
<g><path style="opacity:1" fill="#f1f2f5" d="M 97.5,134.5 C 102.667,134.09 107.667,134.757 112.5,136.5C 113.641,138.421 113.808,140.421 113,142.5C 101.676,136.366 93.3429,139.033 88,150.5C 86.2078,165.207 92.7078,172.54 107.5,172.5C 107.5,168.833 107.5,165.167 107.5,161.5C 105.167,161.5 102.833,161.5 100.5,161.5C 100.5,159.833 100.5,158.167 100.5,156.5C 105.167,156.5 109.833,156.5 114.5,156.5C 114.5,162.833 114.5,169.167 114.5,175.5C 89.1871,181.02 78.6871,171.02 83,145.5C 86.5145,140.003 91.3478,136.337 97.5,134.5 Z"/></g>
<g><path style="opacity:1" fill="#f6f7f8" d="M 121.5,135.5 C 129.696,134.898 137.696,135.731 145.5,138C 151.917,141.836 154.584,147.503 153.5,155C 154.312,165.723 149.645,172.723 139.5,176C 133.509,176.499 127.509,176.666 121.5,176.5C 121.5,162.833 121.5,149.167 121.5,135.5 Z"/></g>
<g><path style="opacity:1" fill="#babfd4" d="M 182.5,136.5 C 176.5,136.5 170.5,136.5 164.5,136.5C 164.5,149.5 164.5,162.5 164.5,175.5C 166.167,175.5 167.833,175.5 169.5,175.5C 169.5,170.5 169.5,165.5 169.5,160.5C 172.5,160.5 175.5,160.5 178.5,160.5C 176.052,161.473 173.385,161.806 170.5,161.5C 170.5,166.5 170.5,171.5 170.5,176.5C 168.167,176.5 165.833,176.5 163.5,176.5C 163.5,162.833 163.5,149.167 163.5,135.5C 170.022,135.177 176.355,135.51 182.5,136.5 Z"/></g>
<g><path style="opacity:1" fill="#fcfcfc" d="M 182.5,136.5 C 191.969,137.844 195.135,143.177 192,152.5C 189.131,157.853 184.631,160.52 178.5,160.5C 175.5,160.5 172.5,160.5 169.5,160.5C 169.5,165.5 169.5,170.5 169.5,175.5C 167.833,175.5 166.167,175.5 164.5,175.5C 164.5,162.5 164.5,149.5 164.5,136.5C 170.5,136.5 176.5,136.5 182.5,136.5 Z"/></g>
<g><path style="opacity:1" fill="#7b86ad" d="M 217.5,136.5 C 212.167,136.5 206.833,136.5 201.5,136.5C 201.5,149.833 201.5,163.167 201.5,176.5C 200.504,163.01 200.171,149.344 200.5,135.5C 206.358,135.178 212.025,135.511 217.5,136.5 Z"/></g>
<g><path style="opacity:1" fill="#f6f7f8" d="M 217.5,136.5 C 227.218,137.261 230.385,142.261 227,151.5C 224.821,154.011 222.321,156.178 219.5,158C 224.167,164 228.833,170 233.5,176C 230.833,176.667 228.167,176.667 225.5,176C 221.5,170.667 217.5,165.333 213.5,160C 211.527,159.505 209.527,159.338 207.5,159.5C 207.5,165.167 207.5,170.833 207.5,176.5C 205.5,176.5 203.5,176.5 201.5,176.5C 201.5,163.167 201.5,149.833 201.5,136.5C 206.833,136.5 212.167,136.5 217.5,136.5 Z"/></g>
<g><path style="opacity:1" fill="#2d3c7c" d="M 127.5,140.5 C 144.917,139.634 151.084,147.634 146,164.5C 145.215,166.286 144.049,167.786 142.5,169C 137.716,171.032 132.716,171.866 127.5,171.5C 127.5,161.167 127.5,150.833 127.5,140.5 Z"/></g>
<g><path style="opacity:1" fill="#7983ac" d="M 170.5,140.5 C 170.5,145.5 170.5,150.5 170.5,155.5C 173.167,155.5 175.833,155.5 178.5,155.5C 175.713,156.477 172.713,156.81 169.5,156.5C 169.179,150.974 169.512,145.64 170.5,140.5 Z"/></g>
<g><path style="opacity:1" fill="#2b3a7b" d="M 170.5,140.5 C 174.182,140.335 177.848,140.501 181.5,141C 186.626,143.553 187.793,147.386 185,152.5C 183.266,154.451 181.099,155.451 178.5,155.5C 175.833,155.5 173.167,155.5 170.5,155.5C 170.5,150.5 170.5,145.5 170.5,140.5 Z"/></g>
<g><path style="opacity:1" fill="#2a3a7b" d="M 207.5,140.5 C 211.605,140.234 215.605,140.734 219.5,142C 222.908,147.516 221.575,151.516 215.5,154C 212.854,154.497 210.187,154.664 207.5,154.5C 207.5,149.833 207.5,145.167 207.5,140.5 Z"/></g>
<g><path style="opacity:1" fill="#ecbf2b" d="M 251.5,152.5 C 256.294,153.097 260.627,152.43 264.5,150.5C 265.16,146.687 266.326,143.021 268,139.5C 269.705,143.618 271.205,147.785 272.5,152C 276.5,152.333 280.5,152.667 284.5,153C 281.577,155.045 278.743,157.212 276,159.5C 276.462,163.879 277.129,168.212 278,172.5C 274.933,169.763 271.599,167.429 268,165.5C 264.401,167.429 261.067,169.763 258,172.5C 258.871,168.212 259.538,163.879 260,159.5C 256.977,157.302 254.144,154.969 251.5,152.5 Z"/></g>
<g><path style="opacity:1" fill="#eec129" d="M 50.5,151.5 C 54.5,152.167 58.5,152.833 62.5,153.5C 59.0199,155.485 56.0199,157.985 53.5,161C 54.6415,164.76 55.9749,168.427 57.5,172C 57.1667,172.167 56.8333,172.333 56.5,172.5C 53.1256,169.955 49.6256,167.622 46,165.5C 42.5088,167.581 39.1755,169.915 36,172.5C 36.6252,168.446 37.7919,164.446 39.5,160.5C 36.6896,157.928 33.6896,155.594 30.5,153.5C 34.5,152.833 38.5,152.167 42.5,151.5C 43.2011,147.699 44.3677,144.032 46,140.5C 47.9521,143.967 49.4521,147.634 50.5,151.5 Z"/></g>
<g><path style="opacity:1" fill="#706a5a" d="M 42.5,151.5 C 38.5,152.167 34.5,152.833 30.5,153.5C 29.7109,153.217 29.0442,152.717 28.5,152C 33.1548,151.501 37.8215,151.334 42.5,151.5 Z"/></g>
<g><path style="opacity:1" fill="#6e695a" d="M 50.5,151.5 C 54.8839,151.174 59.2172,151.508 63.5,152.5C 63.3764,153.107 63.0431,153.44 62.5,153.5C 58.5,152.833 54.5,152.167 50.5,151.5 Z"/></g>
<g><path style="opacity:1" fill="#726b59" d="M 264.5,150.5 C 260.627,152.43 256.294,153.097 251.5,152.5C 255.151,151.732 259.484,151.065 264.5,150.5 Z"/></g>
<g><path style="opacity:1" fill="#eec129" d="M 60.5,195.5 C 62.8217,198.937 64.4884,202.77 65.5,207C 69.8333,207.333 74.1667,207.667 78.5,208C 75.4201,210.29 72.2534,212.457 69,214.5C 69.462,218.879 70.1287,223.212 71,227.5C 67.8416,224.92 64.5082,222.587 61,220.5C 57.9223,222.955 54.7556,225.289 51.5,227.5C 51.4995,223.623 52.4995,219.79 54.5,216C 51.1667,213.333 47.8333,210.667 44.5,208C 48.8206,207.501 53.1539,207.334 57.5,207.5C 58.4876,203.516 59.4876,199.516 60.5,195.5 Z"/></g>
<g><path style="opacity:1" fill="#edc029" d="M 252.5,195.5 C 254.822,198.937 256.488,202.77 257.5,207C 261.833,207.333 266.167,207.667 270.5,208C 267.42,210.29 264.253,212.457 261,214.5C 261.462,218.879 262.129,223.212 263,227.5C 259.842,224.92 256.508,222.587 253,220.5C 249.922,222.955 246.756,225.289 243.5,227.5C 243.499,223.623 244.499,219.79 246.5,216C 243.167,213.333 239.833,210.667 236.5,208C 240.821,207.501 245.154,207.334 249.5,207.5C 250.095,203.385 251.095,199.385 252.5,195.5 Z"/></g>
<g><path style="opacity:1" fill="#edc029" d="M 105.5,247.5 C 109.5,248.167 113.5,248.833 117.5,249.5C 114.349,251.583 111.349,253.916 108.5,256.5C 110.306,260.405 111.473,264.405 112,268.5C 108.825,265.915 105.491,263.581 102,261.5C 98.4007,263.429 95.0674,265.763 92,268.5C 92.462,264.121 93.1287,259.788 94,255.5C 91.2872,253.28 88.4539,251.28 85.5,249.5C 89.5,248.833 93.5,248.167 97.5,247.5C 98.8934,243.49 100.393,239.49 102,235.5C 103.477,239.43 104.644,243.43 105.5,247.5 Z"/></g>
<g><path style="opacity:1" fill="#eec12a" d="M 216.5,247.5 C 220.5,248.167 224.5,248.833 228.5,249.5C 225.208,251.458 222.208,253.791 219.5,256.5C 221.411,260.509 222.411,264.509 222.5,268.5C 219.516,265.674 216.183,263.341 212.5,261.5C 209.167,263.833 205.833,266.167 202.5,268.5C 202.167,268.167 201.833,267.833 201.5,267.5C 203.128,264.117 204.461,260.617 205.5,257C 202.98,253.985 199.98,251.485 196.5,249.5C 200.5,248.833 204.5,248.167 208.5,247.5C 209.314,243.558 210.814,239.891 213,236.5C 214.274,240.154 215.44,243.82 216.5,247.5 Z"/></g>
<g><path style="opacity:1" fill="#726b59" d="M 97.5,247.5 C 93.5,248.167 89.5,248.833 85.5,249.5C 84.9569,249.44 84.6236,249.107 84.5,248.5C 88.7828,247.508 93.1161,247.174 97.5,247.5 Z"/></g>
<g><path style="opacity:1" fill="#7a7156" d="M 105.5,247.5 C 109.884,247.174 114.217,247.508 118.5,248.5C 118.376,249.107 118.043,249.44 117.5,249.5C 113.5,248.833 109.5,248.167 105.5,247.5 Z"/></g>
<g><path style="opacity:1" fill="#746d58" d="M 208.5,247.5 C 204.5,248.167 200.5,248.833 196.5,249.5C 195.957,249.44 195.624,249.107 195.5,248.5C 199.783,247.508 204.116,247.174 208.5,247.5 Z"/></g>
<g><path style="opacity:1" fill="#776f57" d="M 216.5,247.5 C 220.884,247.174 225.217,247.508 229.5,248.5C 229.376,249.107 229.043,249.44 228.5,249.5C 224.5,248.833 220.5,248.167 216.5,247.5 Z"/></g>
<g><path style="opacity:1" fill="#eec129" d="M 161.5,262.5 C 165.167,263.167 168.833,263.833 172.5,264.5C 169.233,266.31 166.567,268.81 164.5,272C 165.28,275.888 166.613,279.555 168.5,283C 168.167,283.167 167.833,283.333 167.5,283.5C 164.126,280.955 160.626,278.622 157,276.5C 153.401,278.429 150.067,280.763 147,283.5C 147.228,279.307 148.395,275.307 150.5,271.5C 147.792,268.791 144.792,266.458 141.5,264.5C 145.5,263.833 149.5,263.167 153.5,262.5C 154.356,258.43 155.523,254.43 157,250.5C 158.607,254.49 160.107,258.49 161.5,262.5 Z"/></g>
<g><path style="opacity:1" fill="#95844a" d="M 153.5,262.5 C 149.5,263.167 145.5,263.833 141.5,264.5C 140.711,264.217 140.044,263.717 139.5,263C 144.155,262.501 148.821,262.334 153.5,262.5 Z"/></g>
<g><path style="opacity:1" fill="#96854a" d="M 161.5,262.5 C 165.846,262.334 170.179,262.501 174.5,263C 173.956,263.717 173.289,264.217 172.5,264.5C 168.833,263.833 165.167,263.167 161.5,262.5 Z"/></g>
</svg>
