<svg xmlns="http://www.w3.org/2000/svg" width="116" height="49" fill="none"><path fill="#1E1E1E" d="M0 0h116v49H0z"/><path fill="#fff" d="M46.969 10.416C43.667 7.721 38.867 6 32.795 6s-10.871 1.72-14.173 4.416C13.875 14.29 12 19.335 12 24.258s1.875 9.967 6.622 13.842c3.302 2.695 8.101 4.416 14.173 4.416S43.667 40.795 46.97 38.1c4.747-3.875 6.622-8.919 6.622-13.842s-1.875-9.967-6.622-13.842"/><path fill="#000" d="M39.83 19.69c1.293 0 2.362.35 3.01.984.912.894 1.375 2.1 1.375 3.584s-.463 2.69-1.375 3.583c-.648.635-1.717.984-3.01.984-1.291 0-2.36-.35-3.008-.984-.913-.894-1.375-2.1-1.375-3.584s.462-2.69 1.375-3.583c.648-.635 1.717-.984 3.009-.984m0-5.342c-2.747 0-4.918.934-6.411 2.396-2.147 2.104-2.995 4.841-2.995 7.514s.848 5.41 2.995 7.512c1.493 1.463 3.664 2.397 6.41 2.397s4.918-.934 6.412-2.397c2.147-2.102 2.995-4.84 2.995-7.512 0-2.673-.848-5.41-2.995-7.514-1.494-1.462-3.665-2.396-6.411-2.396M22.867 19.69c1.292 0 2.36.35 3.009.984.912.894 1.375 2.1 1.375 3.583s-.463 2.69-1.375 3.584c-.649.634-1.717.984-3.01.984s-2.36-.35-3.009-.984c-.912-.894-1.375-2.1-1.375-3.584s.463-2.69 1.375-3.583c.649-.635 1.717-.985 3.01-.985"/><path fill="#fff" d="M72.62 28.614c-.252-.61-.58-.851-.901-.851h-9.636V16.29c0-.341-.227-.69-.8-.958-.398-.187-.978-.306-1.711-.306s-1.313.119-1.711.306c-.573.268-.8.617-.8.958v12.428c0 1.164.434 2.28 1.208 3.102a4 4 0 0 0 2.916 1.285h10.534c.32 0 .649-.24.9-.85.176-.425.288-1.041.288-1.821s-.112-1.396-.287-1.82M80.516 15.333c-.398-.187-.978-.306-1.711-.306s-1.313.12-1.712.306c-.573.268-.8.617-.8.958V31.83c0 .34.227.69.8.958.4.187.979.306 1.712.306s1.313-.12 1.711-.306c.573-.268.8-.617.8-.958V16.29c0-.34-.227-.69-.8-.958M103.201 15.332c-.399-.187-.979-.306-1.712-.306s-1.313.119-1.711.306c-.573.268-.8.617-.8.958h.005-.003l-.002.004c0 2.903-.38 5.154-1.194 7.084l-.019.045c-.521 1.308-1.795 3.014-3.414 4.207-1.618-1.193-2.892-2.9-3.413-4.207l-.019-.045c-.814-1.93-1.194-4.181-1.194-7.084l-.002-.003-.003-.001h.005c0-.341-.227-.69-.8-.958-.399-.187-.978-.306-1.711-.306s-1.313.119-1.712.306c-.573.268-.8.617-.8.958 0 3.524.515 6.462 1.574 8.98 1.187 2.956 3.962 5.964 6.912 7.49a2.53 2.53 0 0 0 2.327 0c2.95-1.526 5.724-4.534 6.912-7.49 1.058-2.518 1.573-5.456 1.573-8.98 0-.341-.226-.69-.799-.958"/></svg>