<svg xmlns="http://www.w3.org/2000/svg" width="96" height="38" fill="none"><g clip-path="url(#a)"><path fill="#000" d="M95.697 18.993a.68.68 0 0 0-.935.183c-.036.055-.843 1.227-2.254 1.227-.55 0-.972-.165-1.247-.513-.018-.018-.036-.055-.055-.073 0 0 .019 0 .019-.018 3.336-1.904 3.3-3.533 3.153-4.137-.202-.732-.844-1.208-1.669-1.208-1.906 0-3.17 2.123-3.17 4.1 0 .256.018.494.054.732-.678.494-1.723 1.117-2.64 1.117-.53 0-.934-.165-1.19-.476a1.5 1.5 0 0 1-.22-.366c2.547-.733 3.519-2.362 3.335-3.661-.11-.842-.751-1.446-1.54-1.446-1.777 0-3.06 1.867-3.262 3.697a1.96 1.96 0 0 1-.917-.31c.037-.294.074-.587.074-.861 0-.604-.11-1.117-.33-1.52-.294-.53-.788-.823-1.357-.823a.85.85 0 0 0-.751.457c-.33.604-.11 1.776.495 2.71.11.183.238.347.385.512-.33 1.062-1.027 2.068-1.907 2.068-.403 0-.696-.128-.953-.384-.348-.384-.587-1.062-.66-1.922 2.493-3.112 3.721-6.168 3.025-7.614-.239-.495-.679-.77-1.21-.77-1.723 0-2.75 2.234-3.153 6.828-.018.275-.037.623-.037.989-.916 1.244-2.438 2.873-3.794 2.873-.385 0-.678-.128-.862-.402-.018-.019-.036-.055-.054-.074.018 0 .036-.018.055-.036 3.354-2.16 3.299-3.79 3.134-4.375-.183-.64-.77-1.062-1.522-1.062-1.942 0-3.262 2.234-3.262 4.32 0 .183.018.366.036.55-.623.439-1.118.841-1.613 1.226.074-.568.184-1.3.312-2.38.037-.22.055-.402.073-.494.11-.787-1.191-.952-1.338-.073-.146.915-.531 2.8-1.613 2.8-.641 0-.99-.713-.916-1.757.091-1.647.99-2.983 2.09-2.983.384 0 .567.402.567.402.349.623 1.43.092 1.192-.567-.11-.293-.458-1.043-1.723-1.043-2.566 0-3.373 2.599-3.483 4.32-.018.274-.018.548.018.823-.366.44-.788.805-1.21.805s-.66-.457-.513-1.5c.147-1.007.257-1.831.312-2.307.312-2.178-2.42-2.123-2.42-2.123s-.036-1.281-1.081-1.281c-.532 0-1.027.42-1.027 1.208 0 .732.605 1.098.605 1.098-.128 1.135-.66 4.905-1.851 4.905-.532 0-.568-.567-.513-.97.073-.549.165-1.5.201-1.739.11-.787-1.191-.951-1.338-.073-.146.915-.531 2.8-1.613 2.8-.641 0-.99-.805-.935-1.793.092-1.666.99-2.947 2.09-2.947.385 0 .568.403.568.403.294.622 1.412.183 1.192-.568-.092-.33-.459-1.043-1.723-1.043-2.567 0-3.373 2.599-3.483 4.32q-.029.411 0 .768c-.367.494-.807.86-1.228.86-.385 0-.678-.2-.605-1.061.036-.403.495-3.167.476-3.66-.055-.843-.44-1.209-1.374-1.209-.99 0-1.723.513-2.035.824 0 0 .458-3.478.55-4.155.092-.696-1.265-.714-1.338 0-.037.311-.404 3.057-.733 5.62-.77 1.683-2.292 4.246-4.546 4.246-4.271 0-2.31-9.299 1.704-9.299.935 0 .514 1.501-.11 2.398-.44.659.679 1.391 1.302.348 1.723-2.91.275-3.99-1.1-3.99-5.939 0-8.139 11.824-1.961 11.824 2.034 0 3.41-1.135 4.289-2.38-.092.696-.147 1.172-.165 1.263-.11.733 1.265.678 1.338.055.055-.384.257-2.013.422-3.276.091-.714.971-2.032 1.961-2.032.238 0 .385.238.367.44-.037.237-.459 3.33-.44 3.788.073 1.3 1.008 1.593 1.888 1.593.696 0 1.264-.33 1.723-.842.311.512.788.842 1.448.842 1.485 0 1.998-1.062 1.998-1.062s.183 1.062 1.466 1.062c2.603 0 3.208-4.521 3.336-6.04.147 0 1.064.054 1.229.567.146.494-.312 2.068-.349 3.697-.018.86.294 1.776 1.65 1.776.825 0 1.485-.385 1.943-.806.312.495.788.806 1.43.806.733 0 1.228-.238 1.54-.476-.019.146-.037.274-.055.42v.02c0-.02-3.428 2.452-3.428 4.777 0 .915.421 1.5 1.503 1.5 2.145 0 2.823-2.873 3.134-5.235.019-.11.037-.22.037-.31.33-.257.642-.495.953-.733.44-.348.88-.677 1.375-1.043.018.037.055.073.073.11.459.622 1.137.952 1.962.952 1.558 0 3.006-1.19 4.032-2.362.165.568.404 1.117.807 1.556.495.53 1.173.824 1.943.824 1.485 0 2.511-1.19 3.061-2.563.403.183.862.293 1.338.33.11.476.293.915.587 1.263.366.439 1.045.97 2.236.97s2.365-.64 3.153-1.172l.11.165c.367.458 1.081 1.007 2.291 1.007 2.145 0 3.336-1.757 3.391-1.83a.72.72 0 0 0-.22-.916M65.6 26.681c-.202 0-.348-.128-.348-.384 0-1.172 1.814-2.764 1.833-2.764-.22 1.574-.862 3.148-1.485 3.148M73.7 15.698c.165 0 .202.129.238.202.074.256-.183 1.226-2.144 2.58.11-1.28.898-2.782 1.906-2.782m6.232-4.63c.568 0 .11 1.94-1.705 4.649.422-3.606 1.009-4.65 1.705-4.65m7.259 4.63c.293 0 .312.293.33.403.073.55-.44 1.538-2.126 2.105.183-1.19.971-2.508 1.796-2.508m5.5 0c.2 0 .31.147.366.33.11.384-.404 1.355-2.2 2.453.037-1.282.807-2.783 1.833-2.783" opacity=".87"/><path fill="#FF6C36" d="M31.724 26.673a1.02 1.02 0 0 0-1.155.018.98.98 0 0 0-.367 1.098c.128.403.495.696.917.714.421.018.806-.22.971-.604.183-.44.037-.97-.366-1.227.458.312-.44-.31 0 0"/><path fill="#FF6C36" d="M18.93 35.989c.22 0 .457 0 .677-.019.459-.018.917-.054 1.357-.11.366-.036-.752.092 0 0 .458-.054.825.367.733.824a.74.74 0 0 1-.385.458c-.128.055-.257.055-.385.073a4 4 0 0 1-.458.037q-1.815.137-3.63-.055c-1.1-.128-2.162-.33-3.226-.66a17.4 17.4 0 0 1-2.97-1.207 17.7 17.7 0 0 1-2.73-1.74 16.6 16.6 0 0 1-2.695-2.507 18.7 18.7 0 0 1-2.126-2.965 17.7 17.7 0 0 1-1.522-3.404 18.4 18.4 0 0 1-.825-7.578c.129-1.263.385-2.526.789-3.734.385-1.19.88-2.325 1.503-3.423a18.4 18.4 0 0 1 2.144-3.02A19.3 19.3 0 0 1 7.858 4.45c.99-.75 2.053-1.41 3.152-1.94a18.7 18.7 0 0 1 3.557-1.281 19 19 0 0 1 3.812-.531 19.4 19.4 0 0 1 3.85.274c1.228.22 2.438.568 3.61 1.025a18 18 0 0 1 3.282 1.72 18.4 18.4 0 0 1 2.86 2.344c.366.366.696.732.934 1.208.202.403.312.86.349 1.3a3.45 3.45 0 0 1-.88 2.525 3.55 3.55 0 0 1-2.86 1.172 3.6 3.6 0 0 1-1.485-.44 2.8 2.8 0 0 1-.641-.475c-.22-.202-.422-.44-.642-.641a11.3 11.3 0 0 0-3.043-2.032 11.5 11.5 0 0 0-3.63-.952 11.7 11.7 0 0 0-3.83.293c-1.21.312-2.365.824-3.428 1.501a11.447 11.447 0 0 0-4.49 5.71 11.2 11.2 0 0 0-.642 3.717c0 1.263.201 2.544.623 3.752a11.2 11.2 0 0 0 1.76 3.222 11.2 11.2 0 0 0 2.694 2.489c1.045.695 2.2 1.208 3.428 1.52 1.246.329 2.548.42 3.831.31a11.4 11.4 0 0 0 3.63-.933c.128-.055.238-.128.366-.147a.7.7 0 0 1 .33.019.65.65 0 0 1 .44.457.66.66 0 0 1-.129.604c-.073.092-.183.147-.293.202-.146.055-.275.128-.421.183a12.1 12.1 0 0 1-3.666.915 12.8 12.8 0 0 1-3.832-.201c.165.183.312.384.459.585.146.202.293.421.421.623.019.036.074.11.074.11h.055c.073 0 .128.018.201.018.129.018.257.018.385.036.532.037 1.063.037 1.595.019 1.045-.055 2.09-.202 3.098-.495a14.4 14.4 0 0 0 2.823-1.134 13.3 13.3 0 0 0 2.456-1.684l.55-.495c.165-.146.293-.33.495-.42a.98.98 0 0 1 1.063.11c.312.237.44.64.348 1.024a.97.97 0 0 1-.293.494c-.183.165-.348.348-.532.513a16 16 0 0 1-2.364 1.776c-.862.53-1.76.97-2.713 1.317-.972.366-1.962.623-2.988.787a16.7 16.7 0 0 1-3.171.202c.091.238.165.476.238.714.037.11.055.22.092.33 0 .036.037.127.037.127z"/><path fill="#FF6C36" d="M29.158 32.62a16.7 16.7 0 0 1-3.318 1.941c-.587.256-1.191.476-1.815.677-.311.092-.623.183-.934.257-.129.036-.275.055-.404.128a.54.54 0 0 0-.238.256.64.64 0 0 0 .073.714c.184.238.459.274.734.22.623-.147 1.246-.33 1.85-.55a18 18 0 0 0 3.484-1.665c.275-.165.55-.348.806-.531.128-.092.275-.183.403-.275.11-.091.239-.164.33-.293a.67.67 0 0 0 .019-.713.68.68 0 0 0-.623-.33 1 1 0 0 0-.367.165c.293-.22-1.888 1.391 0 0m2.2-1.976c-.166.183-.349.366-.532.55-.147.146-.312.274-.385.475a.667.667 0 0 0 .532.842c.238.037.44-.055.605-.201.183-.165.366-.348.531-.531.147-.146.312-.293.367-.512a.7.7 0 0 0-.074-.513.668.668 0 0 0-1.044-.11c.256-.274-.239.256 0 0M27.197 26.8c-.422.44-.862.842-1.339 1.208-.128.092-.275.202-.403.293a.7.7 0 0 0-.256.311.65.65 0 0 0 .183.75c.256.22.586.202.861 0 .257-.182.514-.365.752-.548.22-.183.44-.385.66-.586.128-.11.238-.238.366-.366.11-.11.22-.22.294-.366.11-.293 0-.64-.275-.805a.72.72 0 0 0-.843.11c.256-.257-.642.677 0 0m-8.194-12.117c-.898 0-1.778.275-2.511.806a4.3 4.3 0 0 0-1.559 2.05 4.3 4.3 0 0 0-.091 2.672 4.25 4.25 0 0 0 1.411 2.141c.678.568 1.54.916 2.42.97a4.3 4.3 0 0 0 2.585-.622 4.34 4.34 0 0 0 1.704-1.922 4.4 4.4 0 0 0 .294-2.654 4.36 4.36 0 0 0-1.247-2.27 4.53 4.53 0 0 0-2.328-1.153c-.238 0-.458-.018-.678-.018"/></g><defs><clipPath id="a"><path fill="#fff" d="M.652.69H96v36.62H.652z"/></clipPath></defs></svg>