<svg xmlns="http://www.w3.org/2000/svg" width="125" height="31" fill="none"><g fill="#FF7114" fill-rule="evenodd" clip-path="url(#a)" clip-rule="evenodd"><path d="M13.443 10.637q.299 0 .503.027.203.027.367.101.162.075.312.211.15.135.34.367l9.409 11.885q-.054-.57-.082-1.107a20 20 0 0 1-.026-1.012V10.637h4.05v19.79h-2.392q-.53 0-.898-.164-.367-.163-.707-.597l-9.34-11.79q.04.517.068 1.013.027.495.027.93v10.608h-4.051v-19.79zm29.176 4.02a1.7 1.7 0 0 1-.428.49q-.224.162-.578.162-.312 0-.673-.196-.36-.197-.815-.441a6.7 6.7 0 0 0-1.04-.441 4.2 4.2 0 0 0-1.333-.197q-1.291 0-1.923.55-.632.552-.632 1.487 0 .599.38.991.382.395 1 .68.617.283 1.414.523.796.236 1.624.53.83.291 1.625.686a5.4 5.4 0 0 1 1.414 1.006q.62.612 1 1.486.38.877.38 2.112 0 1.372-.475 2.567a6 6 0 0 1-1.38 2.085q-.904.89-2.23 1.399-1.325.51-3.011.509a9.7 9.7 0 0 1-1.884-.19 11.2 11.2 0 0 1-3.54-1.358 7.2 7.2 0 0 1-1.374-1.06l1.36-2.146q.15-.244.421-.394.272-.15.584-.15.41 0 .823.258.414.259.938.57.523.314 1.203.571.68.258 1.604.258 1.252 0 1.945-.55t.693-1.746q0-.693-.381-1.127a2.95 2.95 0 0 0-.999-.72 9 9 0 0 0-1.407-.502 42 42 0 0 1-1.617-.483 12 12 0 0 1-1.618-.651 5.1 5.1 0 0 1-1.407-1.02 4.8 4.8 0 0 1-.999-1.575q-.38-.944-.381-2.33 0-1.114.449-2.173a5.6 5.6 0 0 1 1.319-1.887q.869-.828 2.134-1.324 1.264-.495 2.896-.496.91 0 1.774.143a9.3 9.3 0 0 1 1.638.421q.775.28 1.448.665.673.387 1.203.877l-1.142 2.132zM54.557 26.8q.924 0 1.652-.306a3.34 3.34 0 0 0 1.23-.876q.503-.57.768-1.392.264-.821.265-1.867V10.637h4.596V22.36q0 1.82-.591 3.341a7.5 7.5 0 0 1-1.693 2.622q-1.101 1.1-2.678 1.711-1.578.612-3.55.612c-1.313 0-2.51-.204-3.561-.612q-1.578-.611-2.68-1.71A7.4 7.4 0 0 1 46.63 25.7q-.584-1.521-.584-3.341V10.637h4.595v11.708q0 1.046.266 1.868.264.821.768 1.398a3.3 3.3 0 0 0 1.23.883q.727.306 1.652.306m16.097-3.695v7.321H66.06V10.637h6.444q2.148 0 3.665.441 1.515.441 2.474 1.229.959.787 1.394 1.86.435 1.074.435 2.337 0 .965-.258 1.82a5.5 5.5 0 0 1-.768 1.583q-.51.726-1.25 1.297a6.7 6.7 0 0 1-1.707.937q.462.231.863.57.4.34.7.829l4.214 6.886h-4.16q-1.155 0-1.658-.87l-3.29-5.744q-.219-.38-.51-.544-.293-.163-.823-.163h-1.169m0-3.164h1.85q.937 0 1.597-.238.66-.237 1.081-.658t.612-.985q.19-.562.19-1.215 0-1.304-.85-2.037t-2.63-.733h-1.85v5.867M105.351 10.88v3.532h-8.13v5.011h6.771v3.545h-6.771v7.701h-4.622V10.88zm12.263 12.265v7.524h-4.595v-7.524L105.84 10.88h4.051q.598 0 .952.278.354.279.571.714l2.801 5.758q.34.692.626 1.277.285.584.503 1.154.204-.585.489-1.168.286-.584.612-1.263l2.774-5.758q.081-.177.224-.353.143-.177.327-.32a1.6 1.6 0 0 1 .421-.23q.238-.09.523-.089h4.079zM7.178 10.88V30.67H2.265V10.88zM8.428 5.917q-.335.723-.89 1.264-.555.543-1.303.865a4 4 0 0 1-1.6.323 3.8 3.8 0 0 1-1.56-.323 4.1 4.1 0 0 1-1.277-.865 4.2 4.2 0 0 1-.864-1.264 3.8 3.8 0 0 1-.323-1.548 4.103 4.103 0 0 1 1.187-2.89Q2.34.936 3.075.614a3.85 3.85 0 0 1 1.56-.323c.55 0 1.1.107 1.6.323q.748.322 1.303.865t.89 1.29.335 1.6c0 .567-.111 1.067-.335 1.548M88.754 10.88V30.67h-4.913V10.88zM90.08 5.916q-.335.722-.89 1.264-.555.543-1.303.865a4 4 0 0 1-1.598.322c-.568 0-1.071-.107-1.56-.322a4.1 4.1 0 0 1-1.278-.865 4.2 4.2 0 0 1-.864-1.264 3.8 3.8 0 0 1-.323-1.548 4.09 4.09 0 0 1 1.187-2.89 4.1 4.1 0 0 1 1.277-.865 3.85 3.85 0 0 1 1.56-.322c.55 0 1.1.107 1.6.322q.747.322 1.302.865.554.54.89 1.29.336.749.335 1.6a3.6 3.6 0 0 1-.335 1.548"/></g><defs><clipPath id="a"><path fill="#fff" d="M.613.291h124.179v30.378H.612z"/></clipPath></defs></svg>