<svg width="82" height="34" viewBox="0 0 82 34" fill="none" xmlns="http://www.w3.org/2000/svg">
<path d="M31.168 4.66253C28.225 2.26031 23.9471 0.726562 18.5351 0.726562C13.123 0.726562 8.84508 2.26031 5.90211 4.66253C1.67133 8.11591 0 12.6119 0 16.9999C0 21.3879 1.67133 25.8839 5.90209 29.3373C8.84507 31.7395 13.123 33.2733 18.535 33.2733C23.9471 33.2733 28.225 31.7395 31.168 29.3373C35.3988 25.8839 37.0701 21.3879 37.0701 16.9999C37.0701 12.612 35.3988 8.11591 31.168 4.66253Z" fill="black"/>
<path d="M24.8055 12.9283C25.9573 12.9283 26.9098 13.24 27.4876 13.806C28.3007 14.6025 28.7131 15.677 28.7131 16.9997C28.7131 18.3224 28.3008 19.3969 27.4876 20.1935C26.9098 20.7594 25.9573 21.0711 24.8055 21.0711C23.6537 21.0711 22.7012 20.7594 22.1234 20.1934C21.3102 19.3969 20.8979 18.3224 20.8979 16.9997C20.8979 15.677 21.3102 14.6025 22.1234 13.8059C22.7012 13.24 23.6537 12.9283 24.8055 12.9283M24.8055 8.16699C22.3576 8.16699 20.4226 8.99947 19.0914 10.3033C17.1778 12.1777 16.4219 14.6181 16.4219 16.9997C16.4219 19.3813 17.1778 21.8217 19.0914 23.696C20.4226 24.9999 22.3575 25.8324 24.8055 25.8324C27.2535 25.8324 29.1884 24.9999 30.5196 23.696C32.4332 21.8216 33.1891 19.3813 33.1891 16.9997C33.1891 14.6181 32.4332 12.1777 30.5196 10.3033C29.1884 8.99947 27.2535 8.16699 24.8055 8.16699Z" fill="white"/>
<path d="M9.68494 12.9277C10.8367 12.9277 11.7893 13.2394 12.367 13.8054C13.1802 14.6019 13.5926 15.6764 13.5926 16.9991C13.5926 18.3218 13.1802 19.3963 12.367 20.1929C11.7893 20.7588 10.8368 21.0705 9.68497 21.0705C8.53318 21.0705 7.58066 20.7588 7.00288 20.1928C6.1897 19.3963 5.77734 18.3218 5.77734 16.9991C5.77734 15.6764 6.18967 14.6019 7.00288 13.8053C7.58066 13.2394 8.53318 12.9277 9.68497 12.9277" fill="white"/>
<path d="M54.0315 20.8822C53.8068 20.3388 53.5142 20.1241 53.2287 20.1241H44.6401V9.8979C44.6401 9.59417 44.4382 9.28297 43.9274 9.04393C43.5721 8.87765 43.0555 8.77148 42.4021 8.77148C41.7486 8.77148 41.232 8.87765 40.8767 9.04393C40.3659 9.28295 40.1641 9.59417 40.1641 9.8979V20.9755C40.1641 22.0125 40.5513 23.007 41.2406 23.7403C41.93 24.4735 42.8649 24.8855 43.8397 24.8855H53.2287C53.5142 24.8855 53.8068 24.6708 54.0315 24.1274C54.1878 23.7494 54.2876 23.1999 54.2876 22.5048C54.2876 21.8097 54.1878 21.2602 54.0315 20.8822Z" fill="black"/>
<path d="M61.068 9.04491C60.7127 8.87863 60.1961 8.77246 59.5427 8.77246C58.8892 8.77246 58.3727 8.87863 58.0173 9.04491C57.5065 9.28393 57.3047 9.59515 57.3047 9.89887V23.7487C57.3047 24.0525 57.5065 24.3636 58.0173 24.6026C58.3727 24.7689 58.8893 24.8751 59.5427 24.8751C60.1961 24.8751 60.7127 24.7689 61.068 24.6026C61.5789 24.3636 61.7807 24.0524 61.7807 23.7487V9.89887C61.7807 9.59515 61.5789 9.28394 61.068 9.04491Z" fill="black"/>
<path d="M81.288 9.04393C80.9326 8.87765 80.4161 8.77148 79.7627 8.77148C79.1092 8.77148 78.5926 8.87765 78.2373 9.04393C77.7265 9.28295 77.5247 9.59417 77.5247 9.8979H77.5286C77.5276 9.89786 77.5266 9.89826 77.5259 9.899C77.5252 9.89974 77.5247 9.90076 77.5247 9.90184C77.5243 12.4892 77.186 14.4957 76.46 16.216C76.4543 16.2293 76.4488 16.2427 76.4434 16.2562C75.9786 17.4213 74.8433 18.9425 73.4008 20.0052H73.4007C71.9582 18.9425 70.8228 17.4213 70.358 16.2562C70.3527 16.2428 70.3472 16.2294 70.3415 16.216C69.6155 14.4957 69.2771 12.4892 69.2768 9.90184C69.2767 9.90076 69.2763 9.89974 69.2756 9.899C69.2748 9.89826 69.2738 9.89786 69.2728 9.8979H69.2768C69.2768 9.59417 69.075 9.28297 68.5641 9.04393C68.2087 8.87765 67.6922 8.77148 67.0388 8.77148C66.3853 8.77148 65.8688 8.87765 65.5134 9.04393C65.0026 9.28295 64.8008 9.59417 64.8008 9.8979C64.8008 13.0395 65.2594 15.658 66.2028 17.9021C67.2614 20.537 69.7344 23.2176 72.3635 24.5777C72.6869 24.7441 73.0415 24.8303 73.4007 24.8298C73.7599 24.8303 74.1145 24.7441 74.4379 24.5777C77.067 23.2176 79.5401 20.537 80.5986 17.9021C81.542 15.658 82.0006 13.0395 82.0006 9.8979C82.0007 9.59421 81.7989 9.283 81.288 9.04393Z" fill="black"/>
</svg>
