<svg xmlns="http://www.w3.org/2000/svg" width="82" height="34" fill="none"><path fill="#000" d="M31.168 4.663C28.225 2.26 23.948.727 18.535.727S8.845 2.26 5.902 4.663C1.672 8.116 0 12.612 0 17s1.671 8.884 5.902 12.337c2.943 2.403 7.221 3.936 12.633 3.936s9.69-1.534 12.633-3.936c4.23-3.453 5.902-7.95 5.902-12.337 0-4.388-1.671-8.884-5.902-12.337"/><path fill="#fff" d="M24.806 12.928c1.151 0 2.104.312 2.682.878.813.797 1.225 1.871 1.225 3.194s-.412 2.397-1.225 3.194c-.578.565-1.53.877-2.683.877-1.151 0-2.104-.312-2.682-.878-.813-.796-1.225-1.87-1.225-3.193s.412-2.398 1.225-3.194c.578-.566 1.53-.878 2.682-.878m0-4.761c-2.447 0-4.382.832-5.714 2.136-1.913 1.875-2.67 4.315-2.67 6.697s.757 4.822 2.67 6.696c1.332 1.304 3.267 2.136 5.714 2.136s4.383-.832 5.715-2.136c1.913-1.874 2.67-4.315 2.67-6.696 0-2.382-.757-4.822-2.67-6.697C29.188 9 27.253 8.167 24.805 8.167M9.685 12.928c1.152 0 2.104.311 2.682.877.813.797 1.226 1.871 1.226 3.194s-.413 2.397-1.226 3.194c-.578.566-1.53.877-2.682.877s-2.104-.311-2.682-.877c-.813-.797-1.226-1.871-1.226-3.194s.413-2.397 1.226-3.194c.578-.566 1.53-.877 2.682-.877"/><path fill="#000" d="M54.032 20.882c-.225-.543-.518-.758-.803-.758H44.64V9.898c0-.304-.202-.615-.713-.854-.355-.166-.871-.273-1.525-.273s-1.17.107-1.525.273c-.511.239-.713.55-.713.854v11.078a4.04 4.04 0 0 0 1.077 2.764 3.57 3.57 0 0 0 2.599 1.146h9.389c.285 0 .578-.215.803-.759.156-.378.256-.927.256-1.622s-.1-1.245-.256-1.623M61.068 9.045c-.355-.166-.872-.273-1.525-.273-.654 0-1.17.107-1.526.273-.51.239-.712.55-.712.854v13.85c0 .303.202.615.712.854.356.166.872.272 1.526.272.653 0 1.17-.106 1.525-.272.51-.24.713-.55.713-.854V9.899c0-.304-.202-.615-.713-.854M81.288 9.044c-.355-.166-.872-.273-1.525-.273-.654 0-1.17.107-1.526.273-.51.239-.712.55-.712.854h.004l-.003.001-.001.003c0 2.587-.339 4.594-1.065 6.314l-.017.04c-.464 1.165-1.6 2.686-3.042 3.75-1.443-1.064-2.578-2.585-3.043-3.75l-.017-.04c-.725-1.72-1.064-3.727-1.064-6.314l-.001-.003-.003-.001h.004c0-.304-.202-.615-.713-.854-.355-.166-.872-.273-1.525-.273-.654 0-1.17.107-1.526.273-.51.239-.712.55-.712.854 0 3.142.458 5.76 1.402 8.004 1.058 2.635 3.531 5.316 6.16 6.676a2.26 2.26 0 0 0 2.075 0c2.629-1.36 5.102-4.041 6.16-6.676.944-2.244 1.403-4.863 1.403-8.004 0-.304-.202-.615-.713-.854"/></svg>