<?xml version="1.0" encoding="UTF-8"?>
<!DOCTYPE svg PUBLIC "-//W3C//DTD SVG 1.1//EN" "http://www.w3.org/Graphics/SVG/1.1/DTD/svg11.dtd">
<svg xmlns="http://www.w3.org/2000/svg" version="1.1" width="484px" height="80px" style="shape-rendering:geometricPrecision; text-rendering:geometricPrecision; image-rendering:optimizeQuality; fill-rule:evenodd; clip-rule:evenodd" xmlns:xlink="http://www.w3.org/1999/xlink">
<g><path style="opacity:0.875" fill="#96b6f3" d="M 39.5,-0.5 C 42.1667,-0.5 44.8333,-0.5 47.5,-0.5C 50.1667,0.166667 52.8333,0.833333 55.5,1.5C 46.467,1.28413 37.467,1.61746 28.5,2.5C 32.0237,0.996522 35.6903,-0.0034778 39.5,-0.5 Z"/></g>
<g><path style="opacity:0.125" fill="#a1c4f4" d="M 106.5,2.5 C 106.167,2.5 105.833,2.5 105.5,2.5C 99.8333,1.16667 94.1667,1.16667 88.5,2.5C 88.1667,2.5 87.8333,2.5 87.5,2.5C 87.6107,1.88258 87.944,1.38258 88.5,1C 94.1667,0.333333 99.8333,0.333333 105.5,1C 106.056,1.38258 106.389,1.88258 106.5,2.5 Z"/></g>
<g><path style="opacity:0.133" fill="#9ebff2" d="M 153.5,2.5 C 147.531,1.20705 141.531,1.20705 135.5,2.5C 135.611,1.88258 135.944,1.38258 136.5,1C 139.333,0.833333 142.167,0.666667 145,0.5C 148.252,0.519112 151.085,1.18578 153.5,2.5 Z"/></g>
<g><path style="opacity:0.999" fill="#4084e9" d="M 199.5,-0.5 C 205.833,-0.5 212.167,-0.5 218.5,-0.5C 218.47,0.497222 218.97,1.16389 220,1.5C 224.415,2.14662 228.582,3.47995 232.5,5.5C 233.609,5.55688 234.609,5.89022 235.5,6.5C 235.833,8.83333 237.167,10.1667 239.5,10.5C 240.419,13.0892 242.086,15.0892 244.5,16.5C 244.833,16.5 245.167,16.5 245.5,16.5C 245.241,18.9893 246.241,20.656 248.5,21.5C 248.5,21.8333 248.5,22.1667 248.5,22.5C 248.69,25.855 249.69,28.855 251.5,31.5C 252.833,37.1667 252.833,42.8333 251.5,48.5C 249.837,50.4385 249.171,52.7718 249.5,55.5C 247.896,56.287 247.229,57.6203 247.5,59.5C 244.677,60.9923 243.01,63.3257 242.5,66.5C 242.167,67.5 241.5,68.1667 240.5,68.5C 237.467,70.016 234.8,72.016 232.5,74.5C 227.533,75.5669 222.866,77.2336 218.5,79.5C 211.5,79.5 204.5,79.5 197.5,79.5C 197.5,79.1667 197.5,78.8333 197.5,78.5C 195.898,76.9261 193.898,76.2594 191.5,76.5C 190.486,75.3263 189.153,74.6596 187.5,74.5C 186.952,71.9162 185.285,70.9162 182.5,71.5C 182.5,71.1667 182.5,70.8333 182.5,70.5C 181.833,69.1667 180.833,68.1667 179.5,67.5C 178.118,65.4514 176.452,63.7847 174.5,62.5C 174.25,60.326 173.25,58.6594 171.5,57.5C 171.573,55.9731 170.906,54.9731 169.5,54.5C 169.5,53.5 169.5,52.5 169.5,51.5C 168.205,43.5071 168.205,35.5071 169.5,27.5C 169.232,25.901 169.566,24.5676 170.5,23.5C 171.906,23.0269 172.573,22.0269 172.5,20.5C 172.5,20.1667 172.5,19.8333 172.5,19.5C 177.211,13.7876 182.544,8.78763 188.5,4.5C 191.738,3.36675 195.071,2.53342 198.5,2C 199.056,1.61742 199.389,1.11742 199.5,0.5C 199.5,0.166667 199.5,-0.166667 199.5,-0.5 Z M 206.5,13.5 C 207.652,30.7596 207.818,48.0929 207,65.5C 205.989,66.3366 204.822,66.67 203.5,66.5C 202.361,49.2106 202.195,31.8772 203,14.5C 204.011,13.6634 205.178,13.33 206.5,13.5 Z M 227.5,17.5 C 228.483,32.0884 228.816,46.755 228.5,61.5C 227.041,61.5674 225.708,61.2341 224.5,60.5C 224.333,46.496 224.5,32.496 225,18.5C 225.671,17.7476 226.504,17.4142 227.5,17.5 Z M 217.5,22.5 C 218.477,33.4187 218.81,44.4187 218.5,55.5C 216.99,56.7279 215.49,56.7279 214,55.5C 213.333,45.1667 213.333,34.8333 214,24.5C 214.71,23.0267 215.876,22.3601 217.5,22.5 Z M 185.5,46.5 C 184.041,46.5674 182.708,46.2341 181.5,45.5C 181.335,41.8183 181.501,38.1516 182,34.5C 183.011,33.6634 184.178,33.33 185.5,33.5C 185.5,37.8333 185.5,42.1667 185.5,46.5 Z M 236.5,46.5 C 235.577,42.9359 235.244,39.2693 235.5,35.5C 235.843,33.7748 236.843,33.2748 238.5,34C 239.622,37.4085 239.789,40.9085 239,44.5C 238.292,45.3805 237.458,46.0472 236.5,46.5 Z M 196.5,22.5 C 196.667,33.8382 196.5,45.1716 196,56.5C 195,57.8333 194,57.8333 193,56.5C 192.5,45.1716 192.333,33.8382 192.5,22.5C 193.833,22.5 195.167,22.5 196.5,22.5 Z"/></g>
<g><path style="opacity:0.133" fill="#9dbff2" d="M 307.5,1.5 C 293.784,1.20215 280.118,1.53548 266.5,2.5C 266.611,1.88258 266.944,1.38258 267.5,1C 281.006,0.172959 294.34,0.339626 307.5,1.5 Z"/></g>
<g><path style="opacity:0.133" fill="#a3c4f4" d="M 362.5,2.5 C 356.5,1.16667 350.5,1.16667 344.5,2.5C 344.167,2.5 343.833,2.5 343.5,2.5C 343.611,1.88258 343.944,1.38258 344.5,1C 347.5,0.833333 350.5,0.666667 353.5,0.5C 356.913,0.516967 359.913,1.18363 362.5,2.5 Z"/></g>
<g><path style="opacity:0.922" fill="#92b4f3" d="M 446.5,-0.5 C 449.833,-0.5 453.167,-0.5 456.5,-0.5C 458.833,0.166667 461.167,0.833333 463.5,1.5C 455.5,1.5 447.5,1.5 439.5,1.5C 441.833,0.833333 444.167,0.166667 446.5,-0.5 Z"/></g>
<g><path style="opacity:1" fill="#3e83e9" d="M 55.5,1.5 C 59.6346,4.06944 63.9679,6.40277 68.5,8.5C 68.9731,9.90632 69.9731,10.573 71.5,10.5C 71.6747,12.6208 71.3414,14.6208 70.5,16.5C 69.1667,17.1667 68.1667,18.1667 67.5,19.5C 66.1667,20.1667 65.1667,21.1667 64.5,22.5C 63.2579,23.0434 61.9245,23.3767 60.5,23.5C 58.223,22.5217 55.8897,21.8551 53.5,21.5C 53.0269,20.0937 52.0269,19.427 50.5,19.5C 48.1934,17.9532 45.5267,17.2865 42.5,17.5C 39.4733,17.2865 36.8066,17.9532 34.5,19.5C 31.8021,19.8449 29.8021,21.1782 28.5,23.5C 28.1667,24.5 27.5,25.1667 26.5,25.5C 23.4433,27.6075 22.11,30.2742 22.5,33.5C 22.5,33.8333 22.5,34.1667 22.5,34.5C 21.0027,36.2897 20.336,38.4563 20.5,41C 20.336,43.5437 21.0027,45.7103 22.5,47.5C 22.427,49.0269 23.0937,50.0269 24.5,50.5C 25.4884,51.795 26.4884,53.1283 27.5,54.5C 28.1293,56.9971 29.796,58.3304 32.5,58.5C 32.6107,59.1174 32.944,59.6174 33.5,60C 39.0603,62.0117 44.3937,61.845 49.5,59.5C 50.1667,59.5 50.8333,59.5 51.5,59.5C 54.2636,58.035 57.097,56.7017 60,55.5C 62.6216,56.6255 65.1216,57.9588 67.5,59.5C 67.5,61.5 68.5,62.5 70.5,62.5C 71.1495,64.4352 71.4828,66.4352 71.5,68.5C 71.1667,69.5 70.5,70.1667 69.5,70.5C 67.5659,71.1103 65.8993,72.1103 64.5,73.5C 61.6829,74.0951 59.3495,75.4284 57.5,77.5C 47.0957,79.0727 36.7624,78.7394 26.5,76.5C 24.5439,75.5082 22.5439,74.5082 20.5,73.5C 19.5084,73.6716 18.8417,73.3382 18.5,72.5C 17.0892,70.086 15.0892,68.4194 12.5,67.5C 11.9202,65.2512 10.5869,63.5846 8.5,62.5C 8.25027,60.326 7.25027,58.6594 5.5,57.5C 2.84364,48.7437 1.84364,39.7437 2.5,30.5C 3.92381,28.4855 4.59047,26.1522 4.5,23.5C 6.10422,22.713 6.77089,21.3797 6.5,19.5C 7.90632,19.0269 8.57298,18.0269 8.5,16.5C 9.83333,15.8333 10.8333,14.8333 11.5,13.5C 13.1667,12.5 14.5,11.1667 15.5,9.5C 17.4044,9.26242 18.7377,8.26242 19.5,6.5C 19.8417,5.66175 20.5084,5.32842 21.5,5.5C 24.4815,5.81763 26.8148,4.81763 28.5,2.5C 37.467,1.61746 46.467,1.28413 55.5,1.5 Z"/></g>
<g><path style="opacity:1" fill="#4184e9" d="M 439.5,1.5 C 447.5,1.5 455.5,1.5 463.5,1.5C 465.426,3.29268 467.759,4.29268 470.5,4.5C 470.833,4.5 471.167,4.5 471.5,4.5C 471.369,5.37644 471.702,6.04311 472.5,6.5C 474.955,8.29671 477.622,9.63005 480.5,10.5C 480.5,12.5 480.5,14.5 480.5,16.5C 480.5,17.1667 480.167,17.5 479.5,17.5C 477.81,17.8564 476.81,18.8564 476.5,20.5C 475.167,20.5 474.5,21.1667 474.5,22.5C 472.236,23.2186 469.903,23.552 467.5,23.5C 467.027,22.0937 466.027,21.427 464.5,21.5C 462.288,18.6423 459.288,17.309 455.5,17.5C 452.833,17.5 450.167,17.5 447.5,17.5C 445.62,17.2291 444.287,17.8958 443.5,19.5C 441.403,20.8786 441.07,22.5453 442.5,24.5C 442.427,26.0269 443.094,27.0269 444.5,27.5C 446.515,28.9238 448.848,29.5905 451.5,29.5C 451.611,30.1174 451.944,30.6174 452.5,31C 457.46,32.1557 462.46,32.989 467.5,33.5C 469.121,35.942 471.454,37.2753 474.5,37.5C 475.585,39.5869 477.251,40.9202 479.5,41.5C 480.338,41.8417 480.672,42.5084 480.5,43.5C 481.751,46.1323 482.751,48.799 483.5,51.5C 483.5,53.5 483.5,55.5 483.5,57.5C 482.019,61.0736 480.686,64.7403 479.5,68.5C 476.833,69.1667 475.167,70.8333 474.5,73.5C 470.58,74.1266 467.247,75.7933 464.5,78.5C 463.209,78.2627 462.209,78.596 461.5,79.5C 455.5,79.5 449.5,79.5 443.5,79.5C 441.5,78.8333 439.5,78.1667 437.5,77.5C 435.824,75.1663 433.491,74.1663 430.5,74.5C 430.027,73.0937 429.027,72.427 427.5,72.5C 426.421,70.457 424.754,69.1237 422.5,68.5C 422.833,67.1667 423.167,65.8333 423.5,64.5C 423.833,63.5 424.5,62.8333 425.5,62.5C 428.089,61.5806 430.089,59.914 431.5,57.5C 431.5,56.8333 431.833,56.5 432.5,56.5C 435.594,57.2134 438.594,58.2134 441.5,59.5C 444.781,59.4203 447.781,60.087 450.5,61.5C 453.34,62.9171 456.007,62.5838 458.5,60.5C 461.367,60.6308 463.033,59.2974 463.5,56.5C 465.191,53.3362 464.191,51.3362 460.5,50.5C 459.01,48.7202 457.01,48.0535 454.5,48.5C 452.562,46.8372 450.228,46.1706 447.5,46.5C 446.833,46.5 446.167,46.5 445.5,46.5C 443.245,44.6197 440.578,43.6197 437.5,43.5C 437.167,43.5 436.833,43.5 436.5,43.5C 436.027,42.0937 435.027,41.427 433.5,41.5C 432.513,38.9142 430.513,37.5809 427.5,37.5C 426.864,35.2054 425.531,33.5387 423.5,32.5C 422.596,31.791 422.263,30.791 422.5,29.5C 422.437,24.7971 422.771,20.1304 423.5,15.5C 423.328,14.5084 423.662,13.8417 424.5,13.5C 427.5,10.5 430.5,7.5 433.5,4.5C 435.967,4.24512 437.967,3.24512 439.5,1.5 Z"/></g>
<g><path style="opacity:1" fill="#4184e9" d="M 105.5,2.5 C 105.182,12.0834 105.515,21.5834 106.5,31C 116.161,31.4998 125.828,31.6665 135.5,31.5C 135.5,21.8333 135.5,12.1667 135.5,2.5C 141.531,1.20705 147.531,1.20705 153.5,2.5C 154.833,27.5 154.833,52.5 153.5,77.5C 147.575,77.8082 141.741,77.4749 136,76.5C 135.5,66.8391 135.334,57.1724 135.5,47.5C 125.833,47.5 116.167,47.5 106.5,47.5C 106.5,57.5 106.5,67.5 106.5,77.5C 100.575,77.8082 94.7412,77.4749 89,76.5C 88.5,51.8356 88.3334,27.1689 88.5,2.5C 94.1667,1.16667 99.8333,1.16667 105.5,2.5 Z"/></g>
<g><path style="opacity:0.196" fill="#8eb3f2" d="M 199.5,0.5 C 199.389,1.11742 199.056,1.61742 198.5,2C 195.071,2.53342 191.738,3.36675 188.5,4.5C 191.569,1.81006 195.236,0.476724 199.5,0.5 Z"/></g>
<g><path style="opacity:1" fill="#4083e9" d="M 307.5,1.5 C 310.518,3.39994 313.851,4.73328 317.5,5.5C 320.135,6.47349 322.135,8.14016 323.5,10.5C 324.026,12.2303 325.026,13.5637 326.5,14.5C 327.338,14.8417 327.672,15.5084 327.5,16.5C 328.779,23.4948 328.779,30.4948 327.5,37.5C 326.236,41.7635 323.569,44.7635 319.5,46.5C 317.973,46.427 316.973,47.0937 316.5,48.5C 316.5,49.1667 316.5,49.8333 316.5,50.5C 316.738,52.4044 317.738,53.7377 319.5,54.5C 320.674,55.5137 321.34,56.847 321.5,58.5C 321.66,60.153 322.326,61.4863 323.5,62.5C 323.427,64.0269 324.094,65.0269 325.5,65.5C 326.338,65.8417 326.672,66.5084 326.5,67.5C 326.427,69.0269 327.094,70.0269 328.5,70.5C 329.605,72.7131 329.605,74.8797 328.5,77C 322.085,77.7902 315.752,77.6235 309.5,76.5C 309.573,74.9731 308.906,73.9731 307.5,73.5C 306.596,72.791 306.263,71.791 306.5,70.5C 306.573,68.9731 305.906,67.9731 304.5,67.5C 304.741,64.9664 303.741,63.2998 301.5,62.5C 301.88,60.302 301.213,58.6354 299.5,57.5C 299.573,55.9731 298.906,54.9731 297.5,54.5C 293.627,52.5698 289.294,51.9031 284.5,52.5C 284.5,60.8333 284.5,69.1667 284.5,77.5C 278.575,77.8082 272.741,77.4749 267,76.5C 266.5,51.8356 266.333,27.1689 266.5,2.5C 280.118,1.53548 293.784,1.20215 307.5,1.5 Z M 301.5,19.5 C 302.5,19.5 303.5,19.5 304.5,19.5C 304.973,20.9063 305.973,21.573 307.5,21.5C 307.5,21.8333 307.5,22.1667 307.5,22.5C 307.989,23.9952 308.655,25.3285 309.5,26.5C 309.5,27.1667 309.5,27.8333 309.5,28.5C 308.239,32.2501 305.572,34.4168 301.5,35C 296.177,35.4994 290.844,35.666 285.5,35.5C 285.5,30.1667 285.5,24.8333 285.5,19.5C 290.833,19.5 296.167,19.5 301.5,19.5 Z"/></g>
<g><path style="opacity:0.376" fill="#a0c6f4" d="M 307.5,1.5 C 311.43,1.63474 314.764,2.96807 317.5,5.5C 313.851,4.73328 310.518,3.39994 307.5,1.5 Z"/></g>
<g><path style="opacity:1" fill="#4184e9" d="M 362.5,2.5 C 363.496,18.6581 363.83,34.9915 363.5,51.5C 363.025,54.3126 364.025,56.3126 366.5,57.5C 367.607,59.9689 369.607,60.9689 372.5,60.5C 374.833,60.5 377.167,60.5 379.5,60.5C 385.5,60.5 388.5,57.5 388.5,51.5C 389.331,35.6719 389.831,19.6719 390,3.5C 395.741,2.5251 401.575,2.19177 407.5,2.5C 407.667,20.5031 407.5,38.5031 407,56.5C 405.533,59.7584 404.367,63.0917 403.5,66.5C 403.5,67.1667 403.167,67.5 402.5,67.5C 400.738,68.2623 399.738,69.5956 399.5,71.5C 397.973,71.427 396.973,72.0937 396.5,73.5C 396.5,74.1667 396.167,74.5 395.5,74.5C 386.523,77.9029 377.19,79.2362 367.5,78.5C 365.585,78.7845 363.919,78.4511 362.5,77.5C 360.65,75.4284 358.317,74.0951 355.5,73.5C 353.833,71.1667 351.833,69.1667 349.5,67.5C 349.167,66.5 348.5,65.8333 347.5,65.5C 347.54,62.5755 346.707,59.9088 345,57.5C 344.5,39.1697 344.333,20.8364 344.5,2.5C 350.5,1.16667 356.5,1.16667 362.5,2.5 Z"/></g>
<g><path style="opacity:0.18" fill="#a6cdf8" d="M 463.5,1.5 C 466.346,1.55164 468.68,2.55164 470.5,4.5C 467.759,4.29268 465.426,3.29268 463.5,1.5 Z"/></g>
<g><path style="opacity:0.545" fill="#9fbbf4" d="M 55.5,1.5 C 60.6592,2.5751 64.9925,4.90844 68.5,8.5C 63.9679,6.40277 59.6346,4.06944 55.5,1.5 Z"/></g>
<g><path style="opacity:0.227" fill="#9ebdf3" d="M 218.5,-0.5 C 219.167,-0.5 219.833,-0.5 220.5,-0.5C 223.816,0.347016 227.15,1.51368 230.5,3C 231.381,3.7083 232.047,4.54163 232.5,5.5C 228.582,3.47995 224.415,2.14662 220,1.5C 218.97,1.16389 218.47,0.497222 218.5,-0.5 Z"/></g>
<g><path style="opacity:0.325" fill="#a5c6f6" d="M 439.5,1.5 C 437.967,3.24512 435.967,4.24512 433.5,4.5C 435.033,2.75488 437.033,1.75488 439.5,1.5 Z"/></g>
<g><path style="opacity:0.894" fill="#81aaf1" d="M 28.5,2.5 C 26.8148,4.81763 24.4815,5.81763 21.5,5.5C 23.1757,3.16628 25.509,2.16628 28.5,2.5 Z"/></g>
<g><path style="opacity:0.351" fill="#79a9f0" d="M 266.5,2.5 C 266.333,27.1689 266.5,51.8356 267,76.5C 272.741,77.4749 278.575,77.8082 284.5,77.5C 278.432,78.8258 272.266,78.8258 266,77.5C 265.17,52.33 265.337,27.33 266.5,2.5 Z"/></g>
<g><path style="opacity:0.353" fill="#9dbff4" d="M 433.5,4.5 C 430.5,7.5 427.5,10.5 424.5,13.5C 426.167,9.16667 429.167,6.16667 433.5,4.5 Z"/></g>
<g><path style="opacity:0.6" fill="#abc5f6" d="M 471.5,4.5 C 475.054,5.76933 478.054,7.76933 480.5,10.5C 477.622,9.63005 474.955,8.29671 472.5,6.5C 471.702,6.04311 471.369,5.37644 471.5,4.5 Z"/></g>
<g><path style="opacity:0.259" fill="#a3c1f4" d="M 188.5,4.5 C 182.544,8.78763 177.211,13.7876 172.5,19.5C 175.893,12.4411 181.226,7.44105 188.5,4.5 Z"/></g>
<g><path style="opacity:0.38" fill="#a3c4f5" d="M 19.5,6.5 C 18.7377,8.26242 17.4044,9.26242 15.5,9.5C 16.2623,7.73758 17.5956,6.73758 19.5,6.5 Z"/></g>
<g><path style="opacity:0.051" fill="#a0bdf0" d="M 68.5,8.5 C 70.0269,8.42702 71.0269,9.09368 71.5,10.5C 69.9731,10.573 68.9731,9.90632 68.5,8.5 Z"/></g>
<g><path style="opacity:0.118" fill="#98bff2" d="M 235.5,6.5 C 237.167,7.5 238.5,8.83333 239.5,10.5C 237.167,10.1667 235.833,8.83333 235.5,6.5 Z"/></g>
<g><path style="opacity:0.275" fill="#a7c6f3" d="M 15.5,9.5 C 14.5,11.1667 13.1667,12.5 11.5,13.5C 11.8333,11.1667 13.1667,9.83333 15.5,9.5 Z"/></g>
<g><path style="opacity:0.749" fill="#8ab0f1" d="M 239.5,10.5 C 241.914,11.9108 243.581,13.9108 244.5,16.5C 242.086,15.0892 240.419,13.0892 239.5,10.5 Z"/></g>
<g><path style="opacity:0.475" fill="#a8c3f4" d="M 323.5,10.5 C 325.446,11.0347 326.446,12.368 326.5,14.5C 325.026,13.5637 324.026,12.2303 323.5,10.5 Z"/></g>
<g><path style="opacity:0.412" fill="#aecbf5" d="M 71.5,10.5 C 72.1471,11.2739 72.4805,12.2739 72.5,13.5C 72.3601,15.0296 71.6935,16.0296 70.5,16.5C 71.3414,14.6208 71.6747,12.6208 71.5,10.5 Z"/></g>
<g><path style="opacity:0.569" fill="#b8cef7" d="M 480.5,10.5 C 482.994,12.594 482.994,14.594 480.5,16.5C 480.5,14.5 480.5,12.5 480.5,10.5 Z"/></g>
<g><path style="opacity:0.067" fill="#b9d4f5" d="M 11.5,13.5 C 10.8333,14.8333 9.83333,15.8333 8.5,16.5C 8.5,14.5 9.5,13.5 11.5,13.5 Z"/></g>
<g><path style="opacity:0.518" fill="#87adf2" d="M 50.5,19.5 C 45.5,19.5 40.5,19.5 35.5,19.5C 35.1667,19.5 34.8333,19.5 34.5,19.5C 36.8066,17.9532 39.4733,17.2865 42.5,17.5C 45.5267,17.2865 48.1934,17.9532 50.5,19.5 Z"/></g>
<g><path style="opacity:0.506" fill="#a6c4f5" d="M 455.5,17.5 C 459.288,17.309 462.288,18.6423 464.5,21.5C 461.388,20.3129 458.388,18.9796 455.5,17.5 Z"/></g>
<g><path style="opacity:0.106" fill="#bfd7f4" d="M 8.5,16.5 C 8.57298,18.0269 7.90632,19.0269 6.5,19.5C 6.42702,17.9731 7.09368,16.9731 8.5,16.5 Z"/></g>
<g><path style="opacity:0.004" fill="#dbe7fa" d="M 70.5,16.5 C 70.5,18.5 69.5,19.5 67.5,19.5C 68.1667,18.1667 69.1667,17.1667 70.5,16.5 Z"/></g>
<g><path style="opacity:0.024" fill="#b8c8f8" d="M 447.5,17.5 C 446.486,18.6737 445.153,19.3404 443.5,19.5C 444.287,17.8958 445.62,17.2291 447.5,17.5 Z"/></g>
<g><path style="opacity:0.004" fill="#d0dbf3" d="M 479.5,17.5 C 479.19,19.1436 478.19,20.1436 476.5,20.5C 476.81,18.8564 477.81,17.8564 479.5,17.5 Z"/></g>
<g><path style="opacity:0.231" fill="#d1e2fa" d="M 50.5,19.5 C 52.0269,19.427 53.0269,20.0937 53.5,21.5C 51.9731,21.573 50.9731,20.9063 50.5,19.5 Z"/></g>
<g><path style="opacity:0.444" fill="#8db6f1" d="M 206.5,13.5 C 205.178,13.33 204.011,13.6634 203,14.5C 202.195,31.8772 202.361,49.2106 203.5,66.5C 202.883,66.3893 202.383,66.056 202,65.5C 201.333,48.1667 201.333,30.8333 202,13.5C 203.616,12.1991 205.116,12.1991 206.5,13.5 Z"/></g>
<g><path style="opacity:0.133" fill="#d4eaf7" d="M 206.5,13.5 C 207.832,21.9738 208.498,30.8071 208.5,40C 208.333,48.8333 208.167,57.6667 208,66.5C 206.384,67.8009 204.884,67.8009 203.5,66.5C 204.822,66.67 205.989,66.3366 207,65.5C 207.818,48.0929 207.652,30.7596 206.5,13.5 Z"/></g>
<g><path style="opacity:0.212" fill="#bed2f8" d="M 304.5,19.5 C 306.027,19.427 307.027,20.0937 307.5,21.5C 305.973,21.573 304.973,20.9063 304.5,19.5 Z"/></g>
<g><path style="opacity:0.067" fill="#a6c1ea" d="M 245.5,16.5 C 246.89,17.8993 247.89,19.5659 248.5,21.5C 246.241,20.656 245.241,18.9893 245.5,16.5 Z"/></g>
<g><path style="opacity:0.204" fill="#96baf4" d="M 423.5,15.5 C 422.771,20.1304 422.437,24.7971 422.5,29.5C 421.838,27.6965 421.505,25.6965 421.5,23.5C 421.287,20.4733 421.953,17.8066 423.5,15.5 Z"/></g>
<g><path style="opacity:0.039" fill="#aaddfb" d="M 476.5,20.5 C 476.167,21.5 475.5,22.1667 474.5,22.5C 474.5,21.1667 475.167,20.5 476.5,20.5 Z"/></g>
<g><path style="opacity:0.075" fill="#b1ccf9" d="M 34.5,19.5 C 34.8333,19.5 35.1667,19.5 35.5,19.5C 33.3374,21.0828 31.0041,22.4161 28.5,23.5C 29.8021,21.1782 31.8021,19.8449 34.5,19.5 Z"/></g>
<g><path style="opacity:0.004" fill="#dee7fa" d="M 67.5,19.5 C 67.5,21.5 66.5,22.5 64.5,22.5C 65.1667,21.1667 66.1667,20.1667 67.5,19.5 Z"/></g>
<g><path style="opacity:0.055" fill="#e0eafc" d="M 443.5,19.5 C 442.962,21.1172 442.629,22.7839 442.5,24.5C 441.07,22.5453 441.403,20.8786 443.5,19.5 Z"/></g>
<g><path style="opacity:0.204" fill="#bfd5f7" d="M 6.5,19.5 C 6.77089,21.3797 6.10422,22.713 4.5,23.5C 4.6596,21.847 5.32627,20.5137 6.5,19.5 Z"/></g>
<g><path style="opacity:0.149" fill="#c0d4f5" d="M 172.5,20.5 C 172.573,22.0269 171.906,23.0269 170.5,23.5C 170.427,21.9731 171.094,20.9731 172.5,20.5 Z"/></g>
<g><path style="opacity:0.161" fill="#bdd2f9" d="M 464.5,21.5 C 466.027,21.427 467.027,22.0937 467.5,23.5C 465.973,23.573 464.973,22.9063 464.5,21.5 Z"/></g>
<g><path style="opacity:0.804" fill="#9cb9f4" d="M 53.5,21.5 C 55.8897,21.8551 58.223,22.5217 60.5,23.5C 61.9245,23.3767 63.2579,23.0434 64.5,22.5C 63.6845,24.3023 62.1845,25.3023 60,25.5C 57.4058,24.7152 55.2392,23.3818 53.5,21.5 Z"/></g>
<g><path style="opacity:0.728" fill="#a1bdf4" d="M 87.5,2.5 C 87.8333,2.5 88.1667,2.5 88.5,2.5C 88.3334,27.1689 88.5,51.8356 89,76.5C 94.7412,77.4749 100.575,77.8082 106.5,77.5C 100.355,78.4902 94.0221,78.8235 87.5,78.5C 86.2309,53.287 86.2309,27.9536 87.5,2.5 Z"/></g>
<g><path style="opacity:0.435" fill="#8fb6f3" d="M 474.5,22.5 C 473.688,23.9931 472.355,24.6598 470.5,24.5C 469.274,24.4805 468.274,24.1471 467.5,23.5C 469.903,23.552 472.236,23.2186 474.5,22.5 Z"/></g>
<g><path style="opacity:0.014" fill="#e4ecfb" d="M 307.5,22.5 C 309.176,23.1834 309.843,24.5168 309.5,26.5C 308.655,25.3285 307.989,23.9952 307.5,22.5 Z"/></g>
<g><path style="opacity:0.788" fill="#8bb0ef" d="M 248.5,22.5 C 250.868,24.9557 251.868,27.9557 251.5,31.5C 249.69,28.855 248.69,25.855 248.5,22.5 Z"/></g>
<g><path style="opacity:0.255" fill="#b8d6f8" d="M 442.5,24.5 C 443.906,24.9731 444.573,25.9731 444.5,27.5C 443.094,27.0269 442.427,26.0269 442.5,24.5 Z"/></g>
<g><path style="opacity:0.639" fill="#96b8f4" d="M 4.5,23.5 C 4.59047,26.1522 3.92381,28.4855 2.5,30.5C 2.17057,27.7718 2.83724,25.4385 4.5,23.5 Z"/></g>
<g><path style="opacity:0.345" fill="#acc9f6" d="M 327.5,16.5 C 331.439,23.528 331.439,30.528 327.5,37.5C 328.779,30.4948 328.779,23.4948 327.5,16.5 Z"/></g>
<g><path style="opacity:0.047" fill="#b8caf8" d="M 26.5,25.5 C 25.1799,28.1401 23.8466,30.8068 22.5,33.5C 22.11,30.2742 23.4433,27.6075 26.5,25.5 Z"/></g>
<g><path style="opacity:0.239" fill="#a3ccf6" d="M 444.5,27.5 C 447.152,27.4095 449.485,28.0762 451.5,29.5C 448.848,29.5905 446.515,28.9238 444.5,27.5 Z"/></g>
<g><path style="opacity:0.565" fill="#8cb3f3" d="M 343.5,2.5 C 343.833,2.5 344.167,2.5 344.5,2.5C 344.333,20.8364 344.5,39.1697 345,57.5C 346.707,59.9088 347.54,62.5755 347.5,65.5C 346.883,65.3893 346.383,65.056 346,64.5C 345,61.1667 344,57.8333 343,54.5C 342.171,36.9951 342.338,19.6618 343.5,2.5 Z"/></g>
<g><path style="opacity:0.624" fill="#8fb4f1" d="M 105.5,2.5 C 105.833,2.5 106.167,2.5 106.5,2.5C 107.493,11.3178 107.827,20.3178 107.5,29.5C 116.506,29.6664 125.506,29.4998 134.5,29C 133.352,20.9124 133.185,12.7457 134,4.5C 134.278,3.5842 134.778,2.91753 135.5,2.5C 135.5,12.1667 135.5,21.8333 135.5,31.5C 125.828,31.6665 116.161,31.4998 106.5,31C 105.515,21.5834 105.182,12.0834 105.5,2.5 Z"/></g>
<g><path style="opacity:0.086" fill="#c7daf6" d="M 227.5,17.5 C 226.504,17.4142 225.671,17.7476 225,18.5C 224.5,32.496 224.333,46.496 224.5,60.5C 223.339,46.3393 223.173,32.0059 224,17.5C 225.292,16.2089 226.458,16.2089 227.5,17.5 Z"/></g>
<g><path style="opacity:0.543" fill="#8bb3f1" d="M 403.5,66.5 C 404.367,63.0917 405.533,59.7584 407,56.5C 407.5,38.5031 407.667,20.5031 407.5,2.5C 401.575,2.19177 395.741,2.5251 390,3.5C 389.831,19.6719 389.331,35.6719 388.5,51.5C 388.333,34.83 388.5,18.1633 389,1.5C 395.084,0.357973 401.251,0.191306 407.5,1C 408.659,20.0933 408.826,39.26 408,58.5C 406.763,61.4481 405.263,64.1148 403.5,66.5 Z"/></g>
<g><path style="opacity:0.373" fill="#a4c2f6" d="M 451.5,29.5 C 457.17,29.9174 462.503,31.2507 467.5,33.5C 462.46,32.989 457.46,32.1557 452.5,31C 451.944,30.6174 451.611,30.1174 451.5,29.5 Z"/></g>
<g><path style="opacity:0.529" fill="#79a8ef" d="M 217.5,22.5 C 218.829,27.7918 219.496,33.4585 219.5,39.5C 219.499,45.3435 219.166,51.0101 218.5,56.5C 218.5,56.1667 218.5,55.8333 218.5,55.5C 218.81,44.4187 218.477,33.4187 217.5,22.5 Z"/></g>
<g><path style="opacity:0.651" fill="#93bcf3" d="M 423.5,32.5 C 425.531,33.5387 426.864,35.2054 427.5,37.5C 425.457,36.4206 424.124,34.754 423.5,32.5 Z"/></g>
<g><path style="opacity:0.577" fill="#9fbdf4" d="M 301.5,19.5 C 296.167,19.5 290.833,19.5 285.5,19.5C 285.5,24.8333 285.5,30.1667 285.5,35.5C 290.844,35.666 296.177,35.4994 301.5,35C 305.572,34.4168 308.239,32.2501 309.5,28.5C 309.485,33.019 307.152,35.519 302.5,36C 296.509,36.4995 290.509,36.6662 284.5,36.5C 284.5,30.5 284.5,24.5 284.5,18.5C 290.358,18.1778 296.025,18.5111 301.5,19.5 Z"/></g>
<g><path style="opacity:0.384" fill="#a8c4f6" d="M 467.5,33.5 C 470.1,34.4676 472.434,35.8009 474.5,37.5C 471.454,37.2753 469.121,35.942 467.5,33.5 Z"/></g>
<g><path style="opacity:0.263" fill="#94b9f3" d="M 234.5,46.5 C 233.353,42.3537 233.186,38.0204 234,33.5C 235.726,32.4238 237.559,32.2571 239.5,33C 240.629,37.0785 240.796,41.2452 240,45.5C 238.38,47.632 236.546,47.9653 234.5,46.5 Z M 236.5,46.5 C 235.577,42.9359 235.244,39.2693 235.5,35.5C 235.843,33.7748 236.843,33.2748 238.5,34C 239.622,37.4085 239.789,40.9085 239,44.5C 238.292,45.3805 237.458,46.0472 236.5,46.5 Z"/></g>
<g><path style="opacity:0.02" fill="#c7f2f9" d="M 235.5,35.5 C 235.244,39.2693 235.577,42.9359 236.5,46.5C 235.833,46.5 235.167,46.5 234.5,46.5C 234.185,42.6286 234.518,38.9619 235.5,35.5 Z"/></g>
<g><path style="opacity:0.616" fill="#a7c4f5" d="M 2.5,30.5 C 1.84364,39.7437 2.84364,48.7437 5.5,57.5C 4.21009,56.9423 3.37675,55.9423 3,54.5C 1.95041,49.5358 1.11708,44.5358 0.5,39.5C 0.677907,36.2626 1.34457,33.2626 2.5,30.5 Z"/></g>
<g><path style="opacity:0.592" fill="#9cbbf3" d="M 169.5,27.5 C 168.205,35.5071 168.205,43.5071 169.5,51.5C 167.354,48.0882 166.354,44.2549 166.5,40C 166.439,35.4444 167.439,31.2778 169.5,27.5 Z"/></g>
<g><path style="opacity:0.969" fill="#86aaf0" d="M 427.5,37.5 C 430.513,37.5809 432.513,38.9142 433.5,41.5C 430.802,41.1551 428.802,39.8218 427.5,37.5 Z"/></g>
<g><path style="opacity:0.059" fill="#a3c8f9" d="M 474.5,37.5 C 476.749,38.0798 478.415,39.4131 479.5,41.5C 477.251,40.9202 475.585,39.5869 474.5,37.5 Z"/></g>
<g><path style="opacity:0.302" fill="#99b9ee" d="M 185.5,46.5 C 185.5,42.1667 185.5,37.8333 185.5,33.5C 184.178,33.33 183.011,33.6634 182,34.5C 181.501,38.1516 181.335,41.8183 181.5,45.5C 180.353,41.3537 180.186,37.0204 181,32.5C 182.726,31.4238 184.559,31.2571 186.5,32C 187.139,34.4105 187.473,36.9105 187.5,39.5C 187.471,42.2695 186.805,44.6028 185.5,46.5 Z"/></g>
<g><path style="opacity:0.625" fill="#629bed" d="M 196.5,22.5 C 196.5,22.1667 196.5,21.8333 196.5,21.5C 197.829,26.9597 198.496,32.793 198.5,39C 198.499,45.0098 198.166,50.8432 197.5,56.5C 197.828,44.9877 197.495,33.6544 196.5,22.5 Z"/></g>
<g><path style="opacity:0.267" fill="#93b5ef" d="M 22.5,34.5 C 21.6453,38.7902 21.6453,43.1235 22.5,47.5C 21.0027,45.7103 20.336,43.5437 20.5,41C 20.336,38.4563 21.0027,36.2897 22.5,34.5 Z"/></g>
<g><path style="opacity:0.078" fill="#c1d6f5" d="M 433.5,41.5 C 435.027,41.427 436.027,42.0937 436.5,43.5C 434.973,43.573 433.973,42.9063 433.5,41.5 Z"/></g>
<g><path style="opacity:0.114" fill="#9dc7fb" d="M 227.5,17.5 C 228.831,24.4682 229.497,31.8016 229.5,39.5C 229.5,47.0078 229.166,54.3411 228.5,61.5C 228.816,46.755 228.483,32.0884 227.5,17.5 Z"/></g>
<g><path style="opacity:0.604" fill="#b4cbf7" d="M 437.5,43.5 C 440.578,43.6197 443.245,44.6197 445.5,46.5C 442.422,46.3803 439.755,45.3803 437.5,43.5 Z"/></g>
<g><path style="opacity:0.035" fill="#c6def8" d="M 181.5,45.5 C 182.708,46.2341 184.041,46.5674 185.5,46.5C 185.083,47.1239 184.416,47.4573 183.5,47.5C 182.287,47.2528 181.62,46.5862 181.5,45.5 Z"/></g>
<g><path style="opacity:0.012" fill="#d6e5f7" d="M 319.5,46.5 C 319.027,47.9063 318.027,48.573 316.5,48.5C 316.973,47.0937 317.973,46.427 319.5,46.5 Z"/></g>
<g><path style="opacity:0.18" fill="#b7d0f9" d="M 447.5,46.5 C 450.228,46.1706 452.562,46.8372 454.5,48.5C 451.848,48.5905 449.515,47.9238 447.5,46.5 Z"/></g>
<g><path style="opacity:0.212" fill="#d5dffb" d="M 22.5,47.5 C 23.9063,47.9731 24.573,48.9731 24.5,50.5C 23.0937,50.0269 22.427,49.0269 22.5,47.5 Z"/></g>
<g><path style="opacity:0.306" fill="#abc3f7" d="M 454.5,48.5 C 457.01,48.0535 459.01,48.7202 460.5,50.5C 458.302,50.1249 456.302,49.4582 454.5,48.5 Z"/></g>
<g><path style="opacity:0.375" fill="#92b7f5" d="M 153.5,77.5 C 147.432,78.8258 141.266,78.8258 135,77.5C 133.477,68.2904 133.31,59.1238 134.5,50C 125.506,49.5002 116.506,49.3336 107.5,49.5C 107.827,59.015 107.494,68.3483 106.5,77.5C 106.5,67.5 106.5,57.5 106.5,47.5C 116.167,47.5 125.833,47.5 135.5,47.5C 135.334,57.1724 135.5,66.8391 136,76.5C 141.741,77.4749 147.575,77.8082 153.5,77.5 Z"/></g>
<g><path style="opacity:0.22" fill="#b6cff7" d="M 217.5,22.5 C 215.876,22.3601 214.71,23.0267 214,24.5C 213.333,34.8333 213.333,45.1667 214,55.5C 215.49,56.7279 216.99,56.7279 218.5,55.5C 218.5,55.8333 218.5,56.1667 218.5,56.5C 216.777,57.807 214.943,57.807 213,56.5C 212.333,45.5 212.333,34.5 213,23.5C 214.27,21.4215 215.77,21.0882 217.5,22.5 Z"/></g>
<g><path style="opacity:0.663" fill="#90b7f2" d="M 480.5,43.5 C 481.5,44.1667 482.5,44.8333 483.5,45.5C 483.5,47.5 483.5,49.5 483.5,51.5C 482.751,48.799 481.751,46.1323 480.5,43.5 Z"/></g>
<g><path style="opacity:0.471" fill="#a5c1f5" d="M 251.5,48.5 C 251.829,51.2282 251.163,53.5615 249.5,55.5C 249.171,52.7718 249.837,50.4385 251.5,48.5 Z"/></g>
<g><path style="opacity:0.047" fill="#cee2fa" d="M 297.5,54.5 C 293.6,53.5701 289.6,53.2367 285.5,53.5C 285.826,61.6841 285.492,69.6841 284.5,77.5C 284.5,69.1667 284.5,60.8333 284.5,52.5C 289.294,51.9031 293.627,52.5698 297.5,54.5 Z"/></g>
<g><path style="opacity:0.322" fill="#a6c2f8" d="M 316.5,50.5 C 318.262,51.2623 319.262,52.5956 319.5,54.5C 317.738,53.7377 316.738,52.4044 316.5,50.5 Z"/></g>
<g><path style="opacity:0.129" fill="#abc8f4" d="M 196.5,21.5 C 196.5,21.8333 196.5,22.1667 196.5,22.5C 197.495,33.6544 197.828,44.9877 197.5,56.5C 196.068,58.6469 194.235,58.9802 192,57.5C 191.5,45.5046 191.333,33.5046 191.5,21.5C 193.167,21.5 194.833,21.5 196.5,21.5 Z M 196.5,22.5 C 195.167,22.5 193.833,22.5 192.5,22.5C 192.333,33.8382 192.5,45.1716 193,56.5C 194,57.8333 195,57.8333 196,56.5C 196.5,45.1716 196.667,33.8382 196.5,22.5 Z"/></g>
<g><path style="opacity:0.569" fill="#a1c0f4" d="M 363.5,51.5 C 364.492,53.4561 365.492,55.4561 366.5,57.5C 364.025,56.3126 363.025,54.3126 363.5,51.5 Z"/></g>
<g><path style="opacity:0.306" fill="#b3ccf7" d="M 67.5,59.5 C 65.1216,57.9588 62.6216,56.6255 60,55.5C 57.097,56.7017 54.2636,58.035 51.5,59.5C 56.9126,52.9107 62.246,52.9107 67.5,59.5 Z"/></g>
<g><path style="opacity:0.431" fill="#9dbff3" d="M 460.5,50.5 C 464.191,51.3362 465.191,53.3362 463.5,56.5C 463.385,54.0532 462.385,52.0532 460.5,50.5 Z"/></g>
<g><path style="opacity:0.114" fill="#aacbf8" d="M 27.5,54.5 C 29.3885,55.604 31.0552,56.9373 32.5,58.5C 29.796,58.3304 28.1293,56.9971 27.5,54.5 Z"/></g>
<g><path style="opacity:0.059" fill="#cddcfc" d="M 169.5,54.5 C 170.906,54.9731 171.573,55.9731 171.5,57.5C 170.094,57.0269 169.427,56.0269 169.5,54.5 Z"/></g>
<g><path style="opacity:0.035" fill="#d5dffb" d="M 297.5,54.5 C 298.906,54.9731 299.573,55.9731 299.5,57.5C 298.094,57.0269 297.427,56.0269 297.5,54.5 Z"/></g>
<g><path style="opacity:0.22" fill="#bacef5" d="M 432.5,56.5 C 436.018,55.4022 439.018,56.4022 441.5,59.5C 438.594,58.2134 435.594,57.2134 432.5,56.5 Z"/></g>
<g><path style="opacity:0.145" fill="#b4cdf9" d="M 249.5,55.5 C 249.34,57.153 248.674,58.4863 247.5,59.5C 247.229,57.6203 247.896,56.287 249.5,55.5 Z"/></g>
<g><path style="opacity:0.733" fill="#8ab1f2" d="M 388.5,51.5 C 388.5,57.5 385.5,60.5 379.5,60.5C 384.052,59.0704 387.052,56.0704 388.5,51.5 Z"/></g>
<g><path style="opacity:0.6" fill="#aec8f8" d="M 366.5,57.5 C 368.574,58.5139 370.574,59.5139 372.5,60.5C 369.607,60.9689 367.607,59.9689 366.5,57.5 Z"/></g>
<g><path style="opacity:0.192" fill="#b6cef7" d="M 463.5,56.5 C 463.033,59.2974 461.367,60.6308 458.5,60.5C 460.142,59.197 461.809,57.8637 463.5,56.5 Z"/></g>
<g><path style="opacity:0.239" fill="#9dbff4" d="M 5.5,57.5 C 7.25027,58.6594 8.25027,60.326 8.5,62.5C 6.2729,61.5994 5.2729,59.9328 5.5,57.5 Z"/></g>
<g><path style="opacity:0.18" fill="#a5c9f3" d="M 171.5,57.5 C 173.25,58.6594 174.25,60.326 174.5,62.5C 172.75,61.3406 171.75,59.674 171.5,57.5 Z"/></g>
<g><path style="opacity:0.157" fill="#bdd2f8" d="M 299.5,57.5 C 301.213,58.6354 301.88,60.302 301.5,62.5C 300.463,61.0697 299.796,59.403 299.5,57.5 Z"/></g>
<g><path style="opacity:0.271" fill="#a2c2f5" d="M 32.5,58.5 C 38.1043,60.3224 43.7709,60.6557 49.5,59.5C 44.3937,61.845 39.0603,62.0117 33.5,60C 32.944,59.6174 32.6107,59.1174 32.5,58.5 Z"/></g>
<g><path style="opacity:0.451" fill="#9fc1f1" d="M 67.5,59.5 C 68.8333,60.1667 69.8333,61.1667 70.5,62.5C 68.5,62.5 67.5,61.5 67.5,59.5 Z"/></g>
<g><path style="opacity:0.078" fill="#b5ccf5" d="M 321.5,58.5 C 323.104,59.287 323.771,60.6203 323.5,62.5C 322.326,61.4863 321.66,60.153 321.5,58.5 Z"/></g>
<g><path style="opacity:0.161" fill="#a6c3f4" d="M 483.5,57.5 C 483.5,59.5 483.5,61.5 483.5,63.5C 482.167,65.1667 480.833,66.8333 479.5,68.5C 480.686,64.7403 482.019,61.0736 483.5,57.5 Z"/></g>
<g><path style="opacity:0.006" fill="#e6eefa" d="M 224.5,60.5 C 225.708,61.2341 227.041,61.5674 228.5,61.5C 228.083,62.1239 227.416,62.4573 226.5,62.5C 225.287,62.2528 224.62,61.5862 224.5,60.5 Z"/></g>
<g><path style="opacity:0.384" fill="#b6cff4" d="M 431.5,57.5 C 430.089,59.914 428.089,61.5806 425.5,62.5C 426.911,60.086 428.911,58.4194 431.5,57.5 Z"/></g>
<g><path style="opacity:0.463" fill="#9cbdf3" d="M 458.5,60.5 C 456.007,62.5838 453.34,62.9171 450.5,61.5C 453.206,61.4249 455.873,61.0916 458.5,60.5 Z"/></g>
<g><path style="opacity:0.725" fill="#98b7ef" d="M 174.5,62.5 C 176.452,63.7847 178.118,65.4514 179.5,67.5C 176.856,66.8561 175.189,65.1894 174.5,62.5 Z"/></g>
<g><path style="opacity:0.392" fill="#bdd5f9" d="M 301.5,62.5 C 303.741,63.2998 304.741,64.9664 304.5,67.5C 303.263,66.0351 302.263,64.3684 301.5,62.5 Z"/></g>
<g><path style="opacity:0.498" fill="#a6c4f4" d="M 323.5,62.5 C 324.906,62.9731 325.573,63.9731 325.5,65.5C 324.094,65.0269 323.427,64.0269 323.5,62.5 Z"/></g>
<g><path style="opacity:0.067" fill="#9cc0f7" d="M 8.5,62.5 C 10.5869,63.5846 11.9202,65.2512 12.5,67.5C 10.4131,66.4154 9.07978,64.7488 8.5,62.5 Z"/></g>
<g><path style="opacity:0.243" fill="#abc6f6" d="M 70.5,62.5 C 71.9468,63.1342 72.6134,64.3009 72.5,66C 72.472,67.0698 72.1386,67.9032 71.5,68.5C 71.4828,66.4352 71.1495,64.4352 70.5,62.5 Z"/></g>
<g><path style="opacity:0.027" fill="#b8c7fa" d="M 247.5,59.5 C 246.214,62.117 244.547,64.4504 242.5,66.5C 243.01,63.3257 244.677,60.9923 247.5,59.5 Z"/></g>
<g><path style="opacity:0.357" fill="#bcd0f7" d="M 423.5,64.5 C 423.167,65.8333 422.833,67.1667 422.5,68.5C 421.147,66.8716 421.481,65.5383 423.5,64.5 Z"/></g>
<g><path style="opacity:0.004" fill="#dee8fc" d="M 347.5,65.5 C 348.5,65.8333 349.167,66.5 349.5,67.5C 348.167,67.5 347.5,66.8333 347.5,65.5 Z"/></g>
<g><path style="opacity:0.047" fill="#9fbdf3" d="M 349.5,67.5 C 351.833,69.1667 353.833,71.1667 355.5,73.5C 352.5,72.5 350.5,70.5 349.5,67.5 Z"/></g>
<g><path style="opacity:0.051" fill="#96b8f4" d="M 179.5,67.5 C 180.833,68.1667 181.833,69.1667 182.5,70.5C 180.5,70.5 179.5,69.5 179.5,67.5 Z"/></g>
<g><path style="opacity:0.051" fill="#d0e1fb" d="M 304.5,67.5 C 305.906,67.9731 306.573,68.9731 306.5,70.5C 305.094,70.0269 304.427,69.0269 304.5,67.5 Z"/></g>
<g><path style="opacity:0.098" fill="#cfdaf8" d="M 326.5,67.5 C 327.906,67.9731 328.573,68.9731 328.5,70.5C 327.094,70.0269 326.427,69.0269 326.5,67.5 Z"/></g>
<g><path style="opacity:0.031" fill="#aec4e7" d="M 402.5,67.5 C 402.262,69.4044 401.262,70.7377 399.5,71.5C 399.738,69.5956 400.738,68.2623 402.5,67.5 Z"/></g>
<g><path style="opacity:0.251" fill="#b6cdf6" d="M 12.5,67.5 C 15.0892,68.4194 17.0892,70.086 18.5,72.5C 15.9108,71.5806 13.9108,69.914 12.5,67.5 Z"/></g>
<g><path style="opacity:0.337" fill="#a9c7f1" d="M 422.5,68.5 C 424.754,69.1237 426.421,70.457 427.5,72.5C 425.205,71.8645 423.539,70.5311 422.5,68.5 Z"/></g>
<g><path style="opacity:0.027" fill="#a6c3f5" d="M 69.5,70.5 C 68.5994,72.7271 66.9328,73.7271 64.5,73.5C 65.8993,72.1103 67.5659,71.1103 69.5,70.5 Z"/></g>
<g><path style="opacity:0.051" fill="#abc4ef" d="M 479.5,68.5 C 478.167,70.5 476.5,72.1667 474.5,73.5C 475.167,70.8333 476.833,69.1667 479.5,68.5 Z"/></g>
<g><path style="opacity:0.765" fill="#95b8f3" d="M 182.5,71.5 C 185.285,70.9162 186.952,71.9162 187.5,74.5C 185.326,74.2503 183.659,73.2503 182.5,71.5 Z"/></g>
<g><path style="opacity:0.043" fill="#c4d7f9" d="M 240.5,68.5 C 238.557,71.4707 235.891,73.4707 232.5,74.5C 234.8,72.016 237.467,70.016 240.5,68.5 Z"/></g>
<g><path style="opacity:0.027" fill="#a7c4f9" d="M 399.5,71.5 C 399.027,72.9063 398.027,73.573 396.5,73.5C 396.973,72.0937 397.973,71.427 399.5,71.5 Z"/></g>
<g><path style="opacity:0.376" fill="#bacef5" d="M 20.5,73.5 C 22.5439,74.5082 24.5439,75.5082 26.5,76.5C 23.6874,76.9754 21.6874,75.9754 20.5,73.5 Z"/></g>
<g><path style="opacity:0.086" fill="#cfe0fc" d="M 427.5,72.5 C 429.027,72.427 430.027,73.0937 430.5,74.5C 428.973,74.573 427.973,73.9063 427.5,72.5 Z"/></g>
<g><path style="opacity:0.004" fill="#d4edfd" d="M 307.5,73.5 C 308.906,73.9731 309.573,74.9731 309.5,76.5C 308.094,76.0269 307.427,75.0269 307.5,73.5 Z"/></g>
<g><path style="opacity:0.282" fill="#a8c4f7" d="M 355.5,73.5 C 358.317,74.0951 360.65,75.4284 362.5,77.5C 359.379,77.2639 357.046,75.9305 355.5,73.5 Z"/></g>
<g><path style="opacity:0.2" fill="#b1cbf6" d="M 395.5,74.5 C 392.196,76.9856 388.529,78.6523 384.5,79.5C 378.833,79.5 373.167,79.5 367.5,79.5C 367.5,79.1667 367.5,78.8333 367.5,78.5C 377.19,79.2362 386.523,77.9029 395.5,74.5 Z"/></g>
<g><path style="opacity:0.702" fill="#a3bff3" d="M 430.5,74.5 C 433.491,74.1663 435.824,75.1663 437.5,77.5C 434.843,77.0652 432.509,76.0652 430.5,74.5 Z"/></g>
<g><path style="opacity:0.184" fill="#bad2f8" d="M 64.5,73.5 C 62.954,75.9305 60.6207,77.2639 57.5,77.5C 59.3495,75.4284 61.6829,74.0951 64.5,73.5 Z"/></g>
<g><path style="opacity:0.251" fill="#a6c5f2" d="M 187.5,74.5 C 189.153,74.6596 190.486,75.3263 191.5,76.5C 189.62,76.7709 188.287,76.1042 187.5,74.5 Z"/></g>
<g><path style="opacity:0.09" fill="#afc6f7" d="M 474.5,73.5 C 471.584,75.9216 468.251,77.5883 464.5,78.5C 467.247,75.7933 470.58,74.1266 474.5,73.5 Z"/></g>
<g><path style="opacity:0.682" fill="#8eb4f0" d="M 191.5,76.5 C 193.898,76.2594 195.898,76.9261 197.5,78.5C 195.102,78.7406 193.102,78.0739 191.5,76.5 Z"/></g>
<g><path style="opacity:0.455" fill="#9dbaf4" d="M 232.5,74.5 C 229.435,76.6991 226.102,78.3657 222.5,79.5C 221.167,79.5 219.833,79.5 218.5,79.5C 222.866,77.2336 227.533,75.5669 232.5,74.5 Z"/></g>
<g><path style="opacity:0.467" fill="#8fb5f2" d="M 328.5,70.5 C 329.993,71.3121 330.66,72.6455 330.5,74.5C 330.43,75.7716 330.097,76.9383 329.5,78C 326.167,78.1667 322.833,78.3333 319.5,78.5C 315.761,78.4864 312.428,77.8197 309.5,76.5C 315.752,77.6235 322.085,77.7902 328.5,77C 329.605,74.8797 329.605,72.7131 328.5,70.5 Z"/></g>
<g><path style="opacity:0.478" fill="#a4c3f5" d="M 26.5,76.5 C 36.7624,78.7394 47.0957,79.0727 57.5,77.5C 55.5,78.1667 53.5,78.8333 51.5,79.5C 45.8333,79.5 40.1667,79.5 34.5,79.5C 31.6871,78.9182 29.0204,77.9182 26.5,76.5 Z"/></g>
</svg>
