<?xml version="1.0" encoding="UTF-8"?>
<!DOCTYPE svg PUBLIC "-//W3C//DTD SVG 1.1//EN" "http://www.w3.org/Graphics/SVG/1.1/DTD/svg11.dtd">
<svg xmlns="http://www.w3.org/2000/svg" version="1.1" width="468px" height="156px" style="shape-rendering:geometricPrecision; text-rendering:geometricPrecision; image-rendering:optimizeQuality; fill-rule:evenodd; clip-rule:evenodd" xmlns:xlink="http://www.w3.org/1999/xlink">
<g><path style="opacity:0.984" fill="#7f38e8" d="M 94.5,1.5 C 96.7224,1.17798 98.5557,1.84464 100,3.5C 102.539,10.9511 105.372,18.2844 108.5,25.5C 114.179,25.8365 119.845,25.1698 125.5,23.5C 128.738,24.3422 130.238,26.3422 130,29.5C 125.114,34.3539 119.947,38.8539 114.5,43C 110.085,45.5351 105.751,48.0351 101.5,50.5C 99.9707,50.4712 98.804,49.8045 98,48.5C 95.5196,42.9341 93.1863,37.2674 91,31.5C 87.3243,36.3417 83.1576,40.675 78.5,44.5C 72.8158,42.4653 67.1491,40.4653 61.5,38.5C 62.277,44.8216 62.4437,51.1549 62,57.5C 57.059,57.9943 52.2257,58.9943 47.5,60.5C 50.2033,64.8571 52.87,69.1904 55.5,73.5C 52.7786,78.3973 49.4453,82.8973 45.5,87C 49.0625,88.8136 52.7292,90.4803 56.5,92C 57.3567,92.6891 58.0233,93.5224 58.5,94.5C 56.5931,101.385 54.5931,108.218 52.5,115C 53.5,115.667 54.5,115.667 55.5,115C 61.2381,109.806 67.5715,105.64 74.5,102.5C 75.5,102.667 76.5,102.833 77.5,103C 81.6983,106.03 86.0316,108.863 90.5,111.5C 94.8556,107.458 98.5223,102.791 101.5,97.5C 106.414,97.4054 111.414,97.2387 116.5,97C 113.828,89.0055 110.661,81.1722 107,73.5C 106.056,70.6529 106.556,68.1529 108.5,66C 123.167,65.3333 137.833,65.3333 152.5,66C 154.637,68.1791 154.971,70.6791 153.5,73.5C 145.554,76.8061 137.888,80.6394 130.5,85C 134.7,93.9075 138.534,103.074 142,112.5C 143.809,117.541 142.143,119.875 137,119.5C 128.61,118.94 120.277,117.94 112,116.5C 109.931,117.27 108.265,118.603 107,120.5C 104.031,125.634 100.864,130.634 97.5,135.5C 96.5,135.833 95.5,136.167 94.5,136.5C 86.9553,132.463 79.7886,127.796 73,122.5C 58.6894,132.826 44.3561,143.159 30,153.5C 27.2975,153.297 25.7975,151.797 25.5,149C 29.2736,134.515 32.9403,120.015 36.5,105.5C 34.4876,103.545 32.1543,102.045 29.5,101C 25.3288,99.7388 21.3288,98.2388 17.5,96.5C 17.3367,94.1432 17.5034,91.8098 18,89.5C 22.8566,83.9795 27.6899,78.4795 32.5,73C 28.3034,65.5383 23.6368,58.3717 18.5,51.5C 17.4798,49.5675 17.3131,47.5675 18,45.5C 21.2665,43.8989 24.7665,43.0655 28.5,43C 33.8229,42.5006 39.1563,42.334 44.5,42.5C 44.1816,32.9166 44.5149,23.4166 45.5,14C 46.6086,13.3623 47.7753,12.8623 49,12.5C 57.906,15.7192 66.5727,19.3858 75,23.5C 81.2726,15.947 87.7726,8.61371 94.5,1.5 Z"/></g>
<g><path style="opacity:0.949" fill="#3d0074" d="M 195.5,29.5 C 209.789,27.3027 220.956,31.9694 229,43.5C 231.299,47.8956 232.466,52.5623 232.5,57.5C 225.833,57.5 219.167,57.5 212.5,57.5C 211.582,50.3869 207.582,47.5536 200.5,49C 197.087,50.0774 194.587,52.2441 193,55.5C 188.334,68.8385 188.334,82.1718 193,95.5C 196.559,102.188 202.059,104.355 209.5,102C 212,100.833 213.833,99 215,96.5C 216.154,92.553 216.987,88.553 217.5,84.5C 212.238,84.8047 207.072,84.4714 202,83.5C 201.501,77.5092 201.334,71.5092 201.5,65.5C 212.167,65.5 222.833,65.5 233.5,65.5C 240.653,39.0701 257.987,27.2367 285.5,30C 298.527,33.3665 308.361,40.8665 315,52.5C 315.5,45.5079 315.666,38.5079 315.5,31.5C 321.833,31.5 328.167,31.5 334.5,31.5C 341.511,47.3702 348.344,63.3702 355,79.5C 355.5,63.5035 355.667,47.5035 355.5,31.5C 362.167,31.5 368.833,31.5 375.5,31.5C 375.334,38.175 375.5,44.8417 376,51.5C 385.654,30.4314 401.154,24.598 422.5,34C 430.585,39.7609 434.585,47.5943 434.5,57.5C 428.491,57.6662 422.491,57.4995 416.5,57C 413.658,49.7185 408.492,47.2185 401,49.5C 397.209,52.1586 394.875,55.8252 394,60.5C 391.631,73.1865 392.631,85.5198 397,97.5C 401.055,102.316 406.222,103.816 412.5,102C 418.272,97.6128 420.605,91.7794 419.5,84.5C 414.57,84.8025 409.737,84.4692 405,83.5C 404.501,77.5092 404.334,71.5092 404.5,65.5C 416.081,65.1789 427.581,65.5122 439,66.5C 442.217,83.0652 439.051,98.0652 429.5,111.5C 416.63,123.038 402.63,124.538 387.5,116C 382.223,111.497 378.39,105.997 376,99.5C 375.5,106.158 375.334,112.825 375.5,119.5C 369.5,119.5 363.5,119.5 357.5,119.5C 351.717,104.057 344.883,89.0573 337,74.5C 336.5,89.4963 336.333,104.496 336.5,119.5C 329.5,119.5 322.5,119.5 315.5,119.5C 315.666,112.492 315.5,105.492 315,98.5C 304.202,116.232 288.368,123.732 267.5,121C 252.021,117.52 241.521,108.354 236,93.5C 228.307,118.263 212.141,126.43 187.5,118C 179.466,112.109 174.299,104.275 172,94.5C 170.029,81.8366 170.029,69.1699 172,56.5C 175.433,43.5737 183.266,34.5737 195.5,29.5 Z M 270.5,49.5 C 292.098,49.2693 301.598,59.9359 299,81.5C 296.718,93.9275 289.218,100.927 276.5,102.5C 264.076,101.227 256.576,94.5604 254,82.5C 250.544,66.7439 256.044,55.7439 270.5,49.5 Z"/></g>
</svg>
