<?xml version="1.0" encoding="UTF-8"?>
<!DOCTYPE svg PUBLIC "-//W3C//DTD SVG 1.1//EN" "http://www.w3.org/Graphics/SVG/1.1/DTD/svg11.dtd">
<svg xmlns="http://www.w3.org/2000/svg" version="1.1" width="328px" height="68px" style="shape-rendering:geometricPrecision; text-rendering:geometricPrecision; image-rendering:optimizeQuality; fill-rule:evenodd; clip-rule:evenodd" xmlns:xlink="http://www.w3.org/1999/xlink">
<g><path style="opacity:0.953" fill="#01d49f" d="M 21.5,-0.5 C 29.5,-0.5 37.5,-0.5 45.5,-0.5C 52.6531,2.08271 58.3198,6.58271 62.5,13C 61.7707,16.3587 59.7707,17.692 56.5,17C 43.032,2.87514 28.8653,2.0418 14,14.5C 2.85236,30.0707 4.68569,43.904 19.5,56C 36.3524,64.6109 49.6857,60.6109 59.5,44C 61.6641,43.0857 63.6641,41.919 65.5,40.5C 66.1616,49.3528 62.8282,56.5195 55.5,62C 52.2333,64.1297 48.9,65.963 45.5,67.5C 38.1667,67.5 30.8333,67.5 23.5,67.5C 11.7102,62.3752 3.71021,53.7086 -0.5,41.5C -0.5,35.8333 -0.5,30.1667 -0.5,24.5C 3.26069,13.0697 10.594,4.73638 21.5,-0.5 Z"/></g>
<g><path style="opacity:0.964" fill="#00d49f" d="M 98.5,-0.5 C 100.167,-0.5 101.833,-0.5 103.5,-0.5C 103.987,0.473444 104.487,1.47344 105,2.5C 105.333,17.1667 105.667,31.8333 106,46.5C 109.121,56.0755 115.788,61.0755 126,61.5C 137.042,60.7797 143.709,55.113 146,44.5C 146.333,30.1667 146.667,15.8333 147,1.5C 147.717,0.955796 148.217,0.28913 148.5,-0.5C 149.833,-0.5 151.167,-0.5 152.5,-0.5C 152.783,0.28913 153.283,0.955796 154,1.5C 154.923,17.8788 154.59,34.2121 153,50.5C 150.038,58.2906 144.871,63.9573 137.5,67.5C 129.833,67.5 122.167,67.5 114.5,67.5C 105.504,63.9037 100.004,57.237 98,47.5C 97.1831,31.4259 97.3498,15.4259 98.5,-0.5 Z"/></g>
<g><path style="opacity:0.949" fill="#00d49f" d="M 187.5,-0.5 C 199.833,-0.5 212.167,-0.5 224.5,-0.5C 238.413,2.9644 244.246,11.9644 242,26.5C 239.565,33.9343 234.732,39.101 227.5,42C 231.948,48.7821 236.781,55.2821 242,61.5C 242.678,63.5976 242.511,65.5976 241.5,67.5C 239.5,67.5 237.5,67.5 235.5,67.5C 227.717,56.5443 219.717,45.711 211.5,35C 208.761,33.1072 206.095,33.1072 203.5,35C 209.257,35.244 213.257,38.0773 215.5,43.5C 210.082,44.8974 204.749,44.7307 199.5,43C 194.065,37.3752 194.398,32.0419 200.5,27C 210.247,23.9847 217.413,26.818 222,35.5C 227.628,33.5357 231.628,29.8691 234,24.5C 236.041,15.9265 232.874,10.4265 224.5,8C 214.172,7.50017 203.839,7.33351 193.5,7.5C 193.5,27.5 193.5,47.5 193.5,67.5C 191.167,67.5 188.833,67.5 186.5,67.5C 185.355,45.8764 185.189,24.2097 186,2.5C 186.513,1.47344 187.013,0.473444 187.5,-0.5 Z"/></g>
<g><path style="opacity:0.947" fill="#00d49f" d="M 272.5,-0.5 C 274.167,-0.5 275.833,-0.5 277.5,-0.5C 278.318,14.7592 278.818,30.0925 279,45.5C 284.747,59.6475 294.914,64.1475 309.5,59C 315.364,55.4385 318.864,50.2718 320,43.5C 320.183,28.759 320.683,14.0923 321.5,-0.5C 323.167,-0.5 324.833,-0.5 326.5,-0.5C 326.5,0.166667 326.833,0.5 327.5,0.5C 327.5,16.5 327.5,32.5 327.5,48.5C 324.822,57.5331 319.155,63.8664 310.5,67.5C 303.167,67.5 295.833,67.5 288.5,67.5C 280.119,64.2805 274.619,58.2805 272,49.5C 270.451,33.8692 270.118,18.2026 271,2.5C 271.513,1.47344 272.013,0.473444 272.5,-0.5 Z"/></g>
<g><path style="opacity:0.949" fill="#00d49f" d="M 41.5,24.5 C 48.8421,24.281 55.5088,26.281 61.5,30.5C 64.5437,28.4364 67.5437,26.4364 70.5,24.5C 74.226,24.7983 75.3927,26.7983 74,30.5C 66.3797,39.0603 56.8797,44.0603 45.5,45.5C 34.7203,44.9129 30.887,39.5796 34,29.5C 36.1699,27.1769 38.6699,25.5103 41.5,24.5 Z M 42.5,32.5 C 46.3465,32.545 50.0131,33.3783 53.5,35C 49.3648,37.5873 45.1981,37.754 41,35.5C 40.7613,34.212 41.2613,33.212 42.5,32.5 Z"/></g>
</svg>
