<?xml version="1.0" encoding="UTF-8"?>
<!DOCTYPE svg PUBLIC "-//W3C//DTD SVG 1.1//EN" "http://www.w3.org/Graphics/SVG/1.1/DTD/svg11.dtd">
<svg xmlns="http://www.w3.org/2000/svg" version="1.1" width="500px" height="129px" style="shape-rendering:geometricPrecision; text-rendering:geometricPrecision; image-rendering:optimizeQuality; fill-rule:evenodd; clip-rule:evenodd" xmlns:xlink="http://www.w3.org/1999/xlink">
<g><path style="opacity:0.004" fill="#58b6fe" d="M 43.5,18.5 C 42.7611,18.631 42.0944,18.4643 41.5,18C 42.4368,17.3083 43.1034,17.475 43.5,18.5 Z"/></g>
<g><path style="opacity:0.004" fill="#526dff" d="M 78.5,18.5 C 78.8966,17.475 79.5632,17.3083 80.5,18C 79.9056,18.4643 79.2389,18.631 78.5,18.5 Z"/></g>
<g><path style="opacity:0.996" fill="#3f89c7" d="M 78.5,18.5 C 82.1141,18.9506 84.1141,19.9506 84.5,21.5C 88.2054,23.4424 91.7054,25.7757 95,28.5C 95.7175,27.5494 96.5509,27.3828 97.5,28C 99.6138,32.7424 102.781,36.5757 107,39.5C 108,42.1667 109,44.8333 110,47.5C 110.333,46.8333 110.667,46.1667 111,45.5C 115.198,57.5012 116.532,69.8345 115,82.5C 113.559,86.5864 112.059,90.5864 110.5,94.5C 109.596,95.209 109.263,96.209 109.5,97.5C 108.5,99.5 107.5,101.5 106.5,103.5C 106.167,100.833 105.833,100.833 105.5,103.5C 103.051,104.94 101.385,106.94 100.5,109.5C 100.167,108.167 99.8333,108.167 99.5,109.5C 98.2264,110.189 98.2264,111.023 99.5,112C 98.4734,112.513 97.4734,113.013 96.5,113.5C 96.1667,112.167 95.8333,112.167 95.5,113.5C 91.0763,116.468 86.9096,119.802 83,123.5C 79.8545,122.451 76.6878,122.617 73.5,124C 74.8333,124.333 76.1667,124.667 77.5,125C 66.5,127 55.5,127 44.5,125C 46.1667,124.667 47.8333,124.333 49.5,124C 46.1445,122.814 42.8112,122.647 39.5,123.5C 38.3044,123.154 38.3044,122.654 39.5,122C 35.1482,121.581 34.8149,120.914 38.5,120C 35.22,119.595 32.72,118.095 31,115.5C 30.6667,115.833 30.3333,116.167 30,116.5C 28.9609,115.29 27.7942,114.29 26.5,113.5C 26.1667,112.167 25.8333,112.167 25.5,113.5C 23.5646,110.101 20.5646,106.434 16.5,102.5C 16.1667,99.8333 15.8333,99.8333 15.5,102.5C 13.1578,96.4857 10.8245,90.4857 8.5,84.5C 8.5,75.5 8.5,66.5 8.5,57.5C 10.8879,51.6958 13.0546,45.6958 15,39.5C 15.3333,40.1667 15.6667,40.8333 16,41.5C 16.8624,39.913 17.5291,38.2464 18,36.5C 18.6667,35.1667 19.3333,35.1667 20,36.5C 22.9941,31.4787 26.4941,27.812 30.5,25.5C 33.659,24.4176 36.3257,22.5842 38.5,20C 40.3817,19.8019 42.0484,19.3019 43.5,18.5C 49.2076,18.5076 49.5409,18.0076 44.5,17C 55.8242,17.1663 67.1575,17.6663 78.5,18.5 Z"/></g>
<g><path style="opacity:0.004" fill="#0d00ff" d="M 84.5,20.5 C 85.8333,21.1667 85.8333,21.1667 84.5,20.5 Z"/></g>
<g><path style="opacity:0.004" fill="#0d00ff" d="M 30.5,25.5 C 29.8333,24.1667 29.8333,24.1667 30.5,25.5 Z"/></g>
<g><path style="opacity:1" fill="#f2f7fb" d="M 53.5,26.5 C 74.1447,25.0968 89.9781,33.0968 101,50.5C 111.129,81.1677 101.296,102.668 71.5,115C 58.7255,117.521 47.0588,115.188 36.5,108C 33.0316,105.876 30.3649,103.043 28.5,99.5C 32.4143,94.0798 36.9143,89.0798 42,84.5C 40.9956,79.7805 40.1622,74.9472 39.5,70C 41.2127,56.9585 48.7127,50.1252 62,49.5C 79.1382,52.5293 85.4715,62.5293 81,79.5C 75.7077,89.2607 67.5411,93.7607 56.5,93C 53.8877,92.3605 51.5543,91.1938 49.5,89.5C 45.8169,92.1849 42.8169,95.5182 40.5,99.5C 46.3932,104.354 53.2265,106.688 61,106.5C 83.0204,104.321 94.8537,92.1546 96.5,70C 92.3956,44.9455 77.729,33.9455 52.5,37C 34.8736,42.2904 26.0402,54.1237 26,72.5C 23.6968,76.027 21.0301,76.3603 18,73.5C 16.7078,59.4605 21.2078,47.6272 31.5,38C 38.1751,32.7327 45.5084,28.8994 53.5,26.5 Z"/></g>
<g><path style="opacity:0.012" fill="#4080aa" d="M 169.5,42.5 C 170.601,41.4017 171.934,41.235 173.5,42C 172.207,42.49 170.873,42.6567 169.5,42.5 Z"/></g>
<g><path style="opacity:0.012" fill="#4b8bb7" d="M 223.5,42.5 C 227.311,41.3547 231.311,41.1881 235.5,42C 231.514,42.4988 227.514,42.6655 223.5,42.5 Z"/></g>
<g><path style="opacity:0.008" fill="#6999fe" d="M 261.5,42.5 C 262.601,41.4017 263.934,41.235 265.5,42C 264.207,42.49 262.873,42.6567 261.5,42.5 Z"/></g>
<g><path style="opacity:0.004" fill="#53cfea" d="M 301.5,42.5 C 300.127,42.6567 298.793,42.49 297.5,42C 299.066,41.235 300.399,41.4017 301.5,42.5 Z"/></g>
<g><path style="opacity:0.012" fill="#4f8abb" d="M 324.5,42.5 C 328.646,41.353 332.98,41.1864 337.5,42C 333.179,42.499 328.846,42.6657 324.5,42.5 Z"/></g>
<g><path style="opacity:0.012" fill="#559ab2" d="M 361.5,42.5 C 369.323,41.3439 377.323,41.1772 385.5,42C 377.507,42.4997 369.507,42.6664 361.5,42.5 Z"/></g>
<g><path style="opacity:0.008" fill="#4984bb" d="M 434.5,42.5 C 430.486,42.6655 426.486,42.4988 422.5,42C 426.689,41.1881 430.689,41.3547 434.5,42.5 Z"/></g>
<g><path style="opacity:0.012" fill="#53a7ae" d="M 453.5,42.5 C 466.327,41.3398 479.327,41.1731 492.5,42C 479.504,42.4999 466.504,42.6666 453.5,42.5 Z"/></g>
<g><path style="opacity:0.004" fill="#0d00ff" d="M 138.5,42.5 C 139.833,43.1667 139.833,43.1667 138.5,42.5 Z"/></g>
<g><path style="opacity:0.004" fill="#0d00ff" d="M 220.5,42.5 C 221.833,43.1667 221.833,43.1667 220.5,42.5 Z"/></g>
<g><path style="opacity:0.004" fill="#220f4f" d="M 236.5,43.5 C 236.897,42.475 237.563,42.3083 238.5,43C 237.906,43.4643 237.239,43.631 236.5,43.5 Z"/></g>
<g><path style="opacity:0.004" fill="#290fa2" d="M 324.5,42.5 C 324.5,42.8333 324.5,43.1667 324.5,43.5C 321.833,43.1667 321.833,42.8333 324.5,42.5 Z"/></g>
<g><path style="opacity:0.004" fill="#220f4f" d="M 338.5,43.5 C 338.897,42.475 339.563,42.3083 340.5,43C 339.906,43.4643 339.239,43.631 338.5,43.5 Z"/></g>
<g><path style="opacity:0.004" fill="#220f4f" d="M 386.5,43.5 C 386.897,42.475 387.563,42.3083 388.5,43C 387.906,43.4643 387.239,43.631 386.5,43.5 Z"/></g>
<g><path style="opacity:0.004" fill="#290fa2" d="M 421.5,43.5 C 420.761,43.631 420.094,43.4643 419.5,43C 420.437,42.3083 421.103,42.475 421.5,43.5 Z"/></g>
<g><path style="opacity:0.004" fill="#290fa2" d="M 434.5,43.5 C 434.5,43.1667 434.5,42.8333 434.5,42.5C 437.167,42.8333 437.167,43.1667 434.5,43.5 Z"/></g>
<g><path style="opacity:0.004" fill="#0d00ff" d="M 109.5,43.5 C 110.833,44.1667 110.833,44.1667 109.5,43.5 Z"/></g>
<g><path style="opacity:0.994" fill="#3f87c5" d="M 301.5,42.5 C 302.558,43.6002 303.392,44.9336 304,46.5C 304.333,46.1667 304.667,45.8333 305,45.5C 305.667,62.8333 305.667,80.1667 305,97.5C 304.667,97.1667 304.333,96.8333 304,96.5C 302.881,97.5521 302.381,98.7188 302.5,100C 298.525,101.379 295.691,100.213 294,96.5C 293.667,89.5 293.333,82.5 293,75.5C 292.667,81.8333 292.333,88.1667 292,94.5C 291.501,88.8431 291.334,83.1764 291.5,77.5C 291.5,77.1667 291.5,76.8333 291.5,76.5C 285.021,75.5093 278.354,75.176 271.5,75.5C 271.167,75.5 270.833,75.5 270.5,75.5C 269.934,83.0919 269.1,90.7586 268,98.5C 265.847,100.444 263.347,100.944 260.5,100C 260.619,98.7188 260.119,97.5521 259,96.5C 258.333,79.5 258.333,62.5 259,45.5C 262.819,42.7209 266.319,43.0542 269.5,46.5C 269.334,52.8421 269.5,59.1754 270,65.5C 270.333,59.5 270.667,53.5 271,47.5C 271.499,52.8229 271.666,58.1563 271.5,63.5C 278.167,63.5 284.833,63.5 291.5,63.5C 291.334,58.4889 291.501,53.4889 292,48.5C 292.499,53.8229 292.666,59.1563 292.5,64.5C 285.492,64.3337 278.492,64.5004 271.5,65C 278.826,65.4997 286.159,65.6663 293.5,65.5C 293.334,59.1579 293.5,52.8246 294,46.5C 296.113,44.2667 298.613,42.9334 301.5,42.5 Z"/></g>
<g><path style="opacity:0.992" fill="#3e89c7" d="M 196.5,48.5 C 195.177,64.0688 195.177,79.7355 196.5,95.5C 194.713,96.4606 193.38,97.9606 192.5,100C 189.975,100.896 187.808,100.396 186,98.5C 184.86,89.5965 184.36,80.5965 184.5,71.5C 184.374,62.0959 184.874,52.7626 186,43.5C 187.808,41.6041 189.975,41.1041 192.5,42C 187.492,42.8693 187.825,43.5359 193.5,44C 194.126,44.7504 194.626,45.5838 195,46.5C 195.333,46.1667 195.667,45.8333 196,45.5C 196.483,46.448 196.649,47.448 196.5,48.5 Z"/></g>
<g><path style="opacity:0.004" fill="#040000" d="M 269.5,45.5 C 270.833,46.1667 270.833,46.1667 269.5,45.5 Z"/></g>
<g><path style="opacity:0.979" fill="#3e88c7" d="M 421.5,43.5 C 425.833,43.5 430.167,43.5 434.5,43.5C 438.346,45.2499 442.346,46.7499 446.5,48C 448.07,49.3968 449.404,50.8968 450.5,52.5C 450.892,54.1789 451.392,55.8455 452,57.5C 452.92,57.9302 453.753,58.2635 454.5,58.5C 454.167,59.1667 453.833,59.8333 453.5,60.5C 456.066,68.1513 456.066,75.8179 453.5,83.5C 452.326,84.5137 451.66,85.847 451.5,87.5C 450.833,88.5 450.167,89.5 449.5,90.5C 449.167,89.1667 448.833,89.1667 448.5,90.5C 446.037,93.7622 443.037,96.5956 439.5,99C 431.066,101.158 422.733,100.825 414.5,98C 414.833,97.6667 415.167,97.3333 415.5,97C 412.823,95.249 410.156,93.5823 407.5,92C 407.833,91.6667 408.167,91.3333 408.5,91C 406.714,89.8036 405.381,88.3036 404.5,86.5C 404.167,85.1667 403.833,85.1667 403.5,86.5C 402.242,84.0186 400.908,81.5186 399.5,79C 400.55,73.1963 400.717,67.363 400,61.5C 400.333,62.1667 400.667,62.8333 401,63.5C 401.333,61.5 401.667,59.5 402,57.5C 402.333,58.5 402.667,59.5 403,60.5C 403.667,58.5 404.333,56.5 405,54.5C 407.043,53.4206 408.376,51.754 409,49.5C 409.333,49.8333 409.667,50.1667 410,50.5C 411,48.8333 412.333,47.5 414,46.5C 414.333,46.8333 414.667,47.1667 415,47.5C 416.932,45.6999 419.098,44.3665 421.5,43.5 Z M 431.5,54.5 C 435.893,54.4568 436.226,54.9568 432.5,56C 434.112,56.7203 435.612,56.5536 437,55.5C 437.617,56.4491 437.451,57.2825 436.5,58C 437.784,58.6838 438.951,58.5171 440,57.5C 440.662,58.9839 441.496,60.3172 442.5,61.5C 441.167,61.8333 441.167,62.1667 442.5,62.5C 442.457,66.8926 442.957,67.2259 444,63.5C 445.485,67.2798 445.652,70.9465 444.5,74.5C 444.768,76.099 444.434,77.4324 443.5,78.5C 443.114,80.9366 441.947,82.9366 440,84.5C 439.667,84.1667 439.333,83.8333 439,83.5C 436.929,84.5248 434.762,85.3581 432.5,86C 433.167,86.3333 433.833,86.6667 434.5,87C 431.223,86.7988 427.889,86.6321 424.5,86.5C 422.021,85.2051 419.354,84.2051 416.5,83.5C 416.672,82.5084 416.338,81.8417 415.5,81.5C 415.672,80.5084 415.338,79.8417 414.5,79.5C 411.904,73.439 411.904,67.439 414.5,61.5C 414.435,61.9382 414.601,62.2716 415,62.5C 416.039,61.7562 416.539,60.7562 416.5,59.5C 417.167,58.8333 417.833,58.1667 418.5,57.5C 418.5,56.1667 419.167,55.5 420.5,55.5C 420.917,56.1239 421.584,56.4573 422.5,56.5C 425.674,56.0092 428.674,55.3425 431.5,54.5 Z"/></g>
<g><path style="opacity:0.998" fill="#3f90cb" d="M 493.5,53.5 C 493.167,52.1667 492.833,52.1667 492.5,53.5C 475.167,53.8333 475.167,54.1667 492.5,54.5C 488.366,55.4849 484.032,55.8182 479.5,55.5C 479.832,68.5171 479.499,81.5171 478.5,94.5C 477.77,95.9337 476.77,97.1004 475.5,98C 476.167,98.3333 476.833,98.6667 477.5,99C 473.802,101.325 470.635,100.825 468,97.5C 467.667,82.8333 467.333,68.1667 467,53.5C 466.667,67.5 466.333,81.5 466,95.5C 465.5,82.1708 465.333,68.8375 465.5,55.5C 449.514,55.3315 449.514,54.8315 465.5,54C 460.451,53.7276 455.451,53.2276 450.5,52.5C 448.773,48.7744 449.773,45.9411 453.5,44C 466.5,43.3333 479.5,43.3333 492.5,44C 493.253,45.487 494.086,45.6537 495,44.5C 495.667,47.1667 495.667,49.8333 495,52.5C 494.617,53.056 494.117,53.3893 493.5,53.5 Z"/></g>
<g><path style="opacity:0.004" fill="#0d00ff" d="M 10.5,46.5 C 11.8333,47.1667 11.8333,47.1667 10.5,46.5 Z"/></g>
<g><path style="opacity:0.975" fill="#3e8ac7" d="M 138.5,43.5 C 139.159,46.4082 139.993,46.7416 141,44.5C 141.333,51.5 141.667,58.5 142,65.5C 142.333,59.1667 142.667,52.8333 143,46.5C 143.499,52.1569 143.666,57.8236 143.5,63.5C 143.5,63.8333 143.5,64.1667 143.5,64.5C 149.979,65.4907 156.646,65.824 163.5,65.5C 163.833,65.5 164.167,65.5 164.5,65.5C 165.833,65.1667 165.833,64.8333 164.5,64.5C 164.5,64.1667 164.5,63.8333 164.5,63.5C 165.288,57.3151 165.955,50.9818 166.5,44.5C 169.141,43.7369 171.808,43.5702 174.5,44C 175.953,45.6487 176.953,47.4821 177.5,49.5C 176.526,64.2974 176.193,78.9641 176.5,93.5C 176.008,100.249 172.675,102.082 166.5,99C 167.167,98.6667 167.833,98.3333 168.5,98C 167.333,97.5 166.5,96.6667 166,95.5C 165.667,96.1667 165.333,96.8333 165,97.5C 163.623,90.9236 163.123,84.2569 163.5,77.5C 163.5,77.1667 163.5,76.8333 163.5,76.5C 157.021,75.5093 150.354,75.176 143.5,75.5C 143.167,75.5 142.833,75.5 142.5,75.5C 141.833,82.8333 141.167,90.1667 140.5,97.5C 140.167,96.1667 139.833,96.1667 139.5,97.5C 138.167,97.8333 138.167,98.1667 139.5,98.5C 138.688,99.9931 137.355,100.66 135.5,100.5C 134.5,100.333 133.5,100.167 132.5,100C 132.619,98.7188 132.119,97.5521 131,96.5C 130.667,96.8333 130.333,97.1667 130,97.5C 129.333,79.8333 129.333,62.1667 130,44.5C 130.805,46.9011 131.638,46.7344 132.5,44C 134.473,43.5045 136.473,43.3379 138.5,43.5 Z"/></g>
<g><path style="opacity:0.988" fill="#3e8ac6" d="M 324.5,43.5 C 329.167,43.5 333.833,43.5 338.5,43.5C 340.902,44.3665 343.068,45.6999 345,47.5C 345.333,47.1667 345.667,46.8333 346,46.5C 346.278,47.4158 346.778,48.0825 347.5,48.5C 348.008,50.2327 348.841,50.566 350,49.5C 350.796,52.0385 350.629,54.3718 349.5,56.5C 349.167,55.1667 348.833,55.1667 348.5,56.5C 346.185,58.7974 343.518,59.1307 340.5,57.5C 340.631,56.7611 340.464,56.0944 340,55.5C 339.107,56.0814 338.107,56.4148 337,56.5C 333.849,55.9069 330.682,55.4069 327.5,55C 329.5,54.6667 331.5,54.3333 333.5,54C 331.19,53.5034 328.857,53.3367 326.5,53.5C 326.473,55.1993 325.806,56.5326 324.5,57.5C 323.167,58.5 323.167,59.5 324.5,60.5C 324.833,61.8333 325.167,61.8333 325.5,60.5C 327.379,60.3932 327.712,60.8932 326.5,62C 331.301,62.3783 335.968,63.3783 340.5,65C 339.5,65.3333 338.5,65.6667 337.5,66C 339.5,66.3333 341.5,66.6667 343.5,67C 342.833,67.3333 342.167,67.6667 341.5,68C 343.989,67.8915 346.322,68.7248 348.5,70.5C 347.167,70.8333 347.167,71.1667 348.5,71.5C 352.573,77.5711 353.073,84.5711 350,92.5C 349.667,92.1667 349.333,91.8333 349,91.5C 348.273,94.6909 346.439,96.6909 343.5,97.5C 336.833,97.8333 336.833,98.1667 343.5,98.5C 335.359,100.981 327.026,101.147 318.5,99C 320.167,98.6667 321.833,98.3333 323.5,98C 316.927,97.5767 312.26,95.0767 309.5,90.5C 309.485,85.218 312.152,82.5513 317.5,82.5C 320.21,84.1084 323.21,85.2751 326.5,86C 324.405,86.5556 324.238,87.0556 326,87.5C 330.609,86.9456 335.109,85.9456 339.5,84.5C 341.09,81.8301 340.423,80.1634 337.5,79.5C 330.305,78.5459 323.972,76.7126 318.5,74C 319.5,73.6667 320.5,73.3333 321.5,73C 315.812,71.2342 312.146,67.7342 310.5,62.5C 310.5,60.5 310.5,58.5 310.5,56.5C 311.302,55.0484 311.802,53.3817 312,51.5C 312.995,50.9341 313.828,50.2674 314.5,49.5C 317.614,47.0353 320.947,45.0353 324.5,43.5 Z"/></g>
<g><path style="opacity:0.992" fill="#3f88c6" d="M 386.5,43.5 C 389.231,44.2982 391.397,45.9649 393,48.5C 393.333,48.1667 393.667,47.8333 394,47.5C 395.522,49.7409 396.855,52.0742 398,54.5C 398.944,62.1558 399.277,69.8225 399,77.5C 398.667,74.1667 398.333,70.8333 398,67.5C 396.673,70.1315 395.34,72.7981 394,75.5C 392.672,77.669 391.006,78.0023 389,76.5C 387.238,76.9444 387.405,77.4444 389.5,78C 383.5,78.3333 377.5,78.6667 371.5,79C 391.489,79.8322 391.489,80.3322 371.5,80.5C 371.666,85.1785 371.499,89.8452 371,94.5C 370.667,89.1667 370.333,83.8333 370,78.5C 369.667,84.5 369.333,90.5 369,96.5C 366.266,97.3617 366.099,98.195 368.5,99C 365.634,100.457 362.634,100.79 359.5,100C 359.43,98.3764 358.93,96.5431 358,94.5C 357.667,95.5 357.333,96.5 357,97.5C 356.333,80.5 356.333,63.5 357,46.5C 357.333,47.5 357.667,48.5 358,49.5C 358.45,47.481 359.283,45.6477 360.5,44C 369.16,43.5002 377.827,43.3336 386.5,43.5 Z M 381.5,55.5 C 382.568,56.4345 383.901,56.7678 385.5,56.5C 386.833,59.8333 386.833,63.1667 385.5,66.5C 380.833,66.5 376.167,66.5 371.5,66.5C 371.5,62.8333 371.5,59.1667 371.5,55.5C 374.833,55.5 378.167,55.5 381.5,55.5 Z"/></g>
<g><path style="opacity:0.008" fill="#686b66" d="M 347.5,47.5 C 348.833,48.1667 348.833,48.1667 347.5,47.5 Z"/></g>
<g><path style="opacity:0.004" fill="#479cc5" d="M 496.5,46.5 C 497.598,47.6009 497.765,48.9343 497,50.5C 496.51,49.2068 496.343,47.8734 496.5,46.5 Z"/></g>
<g><path style="opacity:0.012" fill="#498cbc" d="M 196.5,48.5 C 197.833,64.1667 197.833,79.8333 196.5,95.5C 195.177,79.7355 195.177,64.0688 196.5,48.5 Z"/></g>
<g><path style="opacity:0.012" fill="#52a5a9" d="M 256.5,46.5 C 257.662,62.9949 257.828,79.6616 257,96.5C 256.5,79.8367 256.333,63.17 256.5,46.5 Z"/></g>
<g><path style="opacity:0.004" fill="#040000" d="M 314.5,49.5 C 313.833,48.1667 313.833,48.1667 314.5,49.5 Z"/></g>
<g><path style="opacity:0.004" fill="#1703f0" d="M 127.5,47.5 C 128.661,62.9946 128.828,78.6612 128,94.5C 127.5,78.8369 127.333,63.1702 127.5,47.5 Z"/></g>
<g><path style="opacity:0.008" fill="#45494c" d="M 176.5,93.5 C 176.193,78.9641 176.526,64.2974 177.5,49.5C 178.65,62.4714 178.816,78.1381 178,96.5C 177.768,95.2625 177.268,94.2625 176.5,93.5 Z"/></g>
<g><path style="opacity:0.004" fill="#040000" d="M 205.5,53.5 C 204.833,54.1667 204.833,54.1667 205.5,53.5 Z"/></g>
<g><path style="opacity:0.004" fill="#040000" d="M 492.5,53.5 C 492.833,53.5 493.167,53.5 493.5,53.5C 493.315,54.1701 492.981,54.1701 492.5,53.5 Z"/></g>
<g><path style="opacity:0.004" fill="#4785b8" d="M 310.5,56.5 C 309.427,55.7494 309.26,54.7494 310,53.5C 310.483,54.448 310.649,55.448 310.5,56.5 Z"/></g>
<g><path style="opacity:0.004" fill="#4451b9" d="M 8.5,57.5 C 7.42654,56.7494 7.25988,55.7494 8,54.5C 8.48278,55.448 8.64945,56.448 8.5,57.5 Z"/></g>
<g><path style="opacity:0.004" fill="#2ba29f" d="M 204.5,57.5 C 203.475,57.1034 203.308,56.4368 204,55.5C 204.464,56.0944 204.631,56.7611 204.5,57.5 Z"/></g>
<g><path style="opacity:0.004" fill="#0d00ff" d="M 348.5,56.5 C 348.833,56.5 349.167,56.5 349.5,56.5C 349.315,57.1701 348.981,57.1701 348.5,56.5 Z"/></g>
<g><path style="opacity:0.004" fill="#040000" d="M 308.5,57.5 C 309.598,58.6009 309.765,59.9343 309,61.5C 308.51,60.2068 308.343,58.8734 308.5,57.5 Z"/></g>
<g><path style="opacity:0.004" fill="#362cff" d="M 324.5,57.5 C 324.557,58.609 324.89,59.609 325.5,60.5C 325.167,60.5 324.833,60.5 324.5,60.5C 323.167,59.5 323.167,58.5 324.5,57.5 Z"/></g>
<g><path style="opacity:0.004" fill="#0d00ff" d="M 340.5,57.5 C 339.833,58.1667 339.833,58.1667 340.5,57.5 Z"/></g>
<g><path style="opacity:1" fill="#418ac8" d="M 55.5,58.5 C 70.5966,57.1038 76.0966,63.7705 72,78.5C 63.0962,86.0454 55.4295,85.0454 49,75.5C 48.3333,72.1667 48.3333,68.8333 49,65.5C 51.3722,63.2968 53.5389,60.9635 55.5,58.5 Z"/></g>
<g><path style="opacity:0.004" fill="#0d00ff" d="M 215.5,61.5 C 216.833,62.1667 216.833,62.1667 215.5,61.5 Z"/></g>
<g><path style="opacity:0.008" fill="#66a0fe" d="M 164.5,63.5 C 164.5,63.8333 164.5,64.1667 164.5,64.5C 164.5,64.8333 164.5,65.1667 164.5,65.5C 164.167,65.5 163.833,65.5 163.5,65.5C 157.021,64.5093 150.354,64.176 143.5,64.5C 143.5,64.1667 143.5,63.8333 143.5,63.5C 150.167,63.5 156.833,63.5 163.5,63.5C 163.833,42.1667 164.167,42.1667 164.5,63.5 Z"/></g>
<g><path style="opacity:0.008" fill="#6689f7" d="M 247.5,64.5 C 240.492,64.6663 233.492,64.4996 226.5,64C 233.679,63.1787 240.679,63.3454 247.5,64.5 Z"/></g>
<g><path style="opacity:0.004" fill="#5a92ff" d="M 310.5,62.5 C 310.649,63.552 310.483,64.552 310,65.5C 309.26,64.2506 309.427,63.2506 310.5,62.5 Z"/></g>
<g><path style="opacity:0.02" fill="#3b9cc7" d="M 7.5,84.5 C 6.34305,76.0099 6.17639,67.3433 7,58.5C 7.49975,67.1603 7.66642,75.8269 7.5,84.5 Z"/></g>
<g><path style="opacity:0.004" fill="#3ce9fc" d="M 456.5,66.5 C 457.638,69.3035 457.805,72.3035 457,75.5C 456.502,72.5184 456.335,69.5184 456.5,66.5 Z"/></g>
<g><path style="opacity:0.99" fill="#3e89c5" d="M 236.5,43.5 C 240.939,44.7591 244.772,47.0924 248,50.5C 252.023,53.9368 251.189,57.1034 245.5,60C 245.833,60.3333 246.167,60.6667 246.5,61C 245.5,61.6667 244.5,61.6667 243.5,61C 243.833,60.6667 244.167,60.3333 244.5,60C 242.671,59.7265 241.171,58.8932 240,57.5C 239.282,58.4506 238.449,58.6172 237.5,58C 238.451,57.2825 238.617,56.4491 238,55.5C 236.274,56.5762 234.441,56.7429 232.5,56C 233.833,55.6667 235.167,55.3333 236.5,55C 232.121,53.1779 227.787,53.1779 223.5,55C 224.167,55.3333 224.833,55.6667 225.5,56C 223.888,56.7203 222.388,56.5536 221,55.5C 220.383,56.4491 220.549,57.2825 221.5,58C 220.216,58.6838 219.049,58.5171 218,57.5C 217.338,58.9839 216.504,60.3172 215.5,61.5C 214.778,61.9175 214.278,62.5842 214,63.5C 213.333,68.5 213.333,73.5 214,78.5C 214.278,79.4158 214.778,80.0825 215.5,80.5C 216.072,81.9733 216.905,83.3066 218,84.5C 218.333,84.1667 218.667,83.8333 219,83.5C 220.648,84.717 222.481,85.5503 224.5,86C 222.405,86.5556 222.238,87.0556 224,87.5C 227.492,86.212 230.992,86.212 234.5,87.5C 236.197,87.1012 237.863,86.6012 239.5,86C 235.774,84.9568 236.107,84.4568 240.5,84.5C 240.5,82.1667 240.5,79.8333 240.5,77.5C 220.511,77.3322 220.511,76.8322 240.5,76C 235.5,75.6667 230.5,75.3333 225.5,75C 224.883,72.723 224.216,70.5563 223.5,68.5C 223.953,67.5416 224.619,66.7083 225.5,66C 233.011,65.8288 240.345,65.3288 247.5,64.5C 249.379,64.3932 249.712,64.8932 248.5,66C 250.884,67.4096 252.55,69.4096 253.5,72C 253.765,76.2173 253.432,80.5506 252.5,85C 252.051,87.3259 251.217,89.4926 250,91.5C 247.687,93.8744 245.187,95.8744 242.5,97.5C 234.5,97.8333 234.5,98.1667 242.5,98.5C 233.549,101.322 224.549,101.155 215.5,98C 215.833,97.6667 216.167,97.3333 216.5,97C 213.351,95.4917 210.351,93.9917 207.5,92.5C 207.598,90.4471 206.931,88.7804 205.5,87.5C 205.672,86.5084 205.338,85.8417 204.5,85.5C 203.136,82.3324 202.303,78.9991 202,75.5C 201.667,76.8333 201.333,78.1667 201,79.5C 200.333,73.8333 200.333,68.1667 201,62.5C 201.333,63.8333 201.667,65.1667 202,66.5C 202.396,63.3429 203.229,60.3429 204.5,57.5C 206.138,56.2954 206.471,54.9621 205.5,53.5C 206.469,52.6906 207.302,51.6906 208,50.5C 208.914,51.6537 209.747,51.487 210.5,50C 209.167,49.3333 209.167,48.6667 210.5,48C 218.67,44.0992 227.337,42.5992 236.5,43.5 Z"/></g>
<g><path style="opacity:0.004" fill="#270db8" d="M 214.5,64.5 C 215.573,65.2506 215.74,66.2506 215,67.5C 214.517,66.552 214.351,65.552 214.5,64.5 Z"/></g>
<g><path style="opacity:0.012" fill="#6199dc" d="M 223.5,68.5 C 223.657,69.8734 223.49,71.2068 223,72.5C 222.235,70.9343 222.402,69.6009 223.5,68.5 Z"/></g>
<g><path style="opacity:0.004" fill="#040000" d="M 198.5,70.5 C 199.525,70.8966 199.692,71.5632 199,72.5C 198.536,71.9056 198.369,71.2389 198.5,70.5 Z"/></g>
<g><path style="opacity:0.004" fill="#040000" d="M 348.5,70.5 C 349.833,71.1667 349.833,71.1667 348.5,70.5 Z"/></g>
<g><path style="opacity:0.004" fill="#040000" d="M 116.5,73.5 C 117.833,74.1667 117.833,74.1667 116.5,73.5 Z"/></g>
<g><path style="opacity:0.004" fill="#58b6fe" d="M 214.5,75.5 C 215.525,75.8966 215.692,76.5632 215,77.5C 214.536,76.9056 214.369,76.2389 214.5,75.5 Z"/></g>
<g><path style="opacity:0.008" fill="#2e8891" d="M 142.5,75.5 C 142.833,75.5 143.167,75.5 143.5,75.5C 149.979,76.4907 156.646,76.824 163.5,76.5C 163.5,76.8333 163.5,77.1667 163.5,77.5C 156.833,77.5 150.167,77.5 143.5,77.5C 143.666,83.5092 143.499,89.5092 143,95.5C 142.5,88.8417 142.334,82.175 142.5,75.5 Z"/></g>
<g><path style="opacity:0.004" fill="#3cd6d5" d="M 270.5,75.5 C 270.833,75.5 271.167,75.5 271.5,75.5C 277.979,76.4907 284.646,76.824 291.5,76.5C 291.5,76.8333 291.5,77.1667 291.5,77.5C 284.833,77.5 278.167,77.5 271.5,77.5C 271.666,83.5092 271.499,89.5092 271,95.5C 270.5,88.8417 270.334,82.175 270.5,75.5 Z"/></g>
<g><path style="opacity:0.004" fill="#0d00ff" d="M 215.5,79.5 C 216.833,80.1667 216.833,80.1667 215.5,79.5 Z"/></g>
<g><path style="opacity:0.004" fill="#0d00ff" d="M 337.5,79.5 C 337.103,80.525 336.437,80.6917 335.5,80C 336.094,79.5357 336.761,79.369 337.5,79.5 Z"/></g>
<g><path style="opacity:0.004" fill="#0d00ff" d="M 317.5,81.5 C 318.833,82.1667 318.833,82.1667 317.5,81.5 Z"/></g>
<g><path style="opacity:0.004" fill="#234e4d" d="M 453.5,83.5 C 454.525,83.8966 454.692,84.5632 454,85.5C 453.536,84.9056 453.369,84.2389 453.5,83.5 Z"/></g>
<g><path style="opacity:0.004" fill="#4785b8" d="M 7.5,84.5 C 7.83333,84.5 8.16667,84.5 8.5,84.5C 8.16667,88.5 7.83333,88.5 7.5,84.5 Z"/></g>
<g><path style="opacity:0.004" fill="#0d00ff" d="M 204.5,85.5 C 203.833,86.1667 203.833,86.1667 204.5,85.5 Z"/></g>
<g><path style="opacity:0.004" fill="#0d00ff" d="M 403.5,86.5 C 403.833,86.5 404.167,86.5 404.5,86.5C 404.315,87.1701 403.981,87.1701 403.5,86.5 Z"/></g>
<g><path style="opacity:0.004" fill="#13fffa" d="M 205.5,87.5 C 204.833,88.1667 204.833,88.1667 205.5,87.5 Z"/></g>
<g><path style="opacity:0.004" fill="#13fffa" d="M 451.5,87.5 C 452.833,88.1667 452.833,88.1667 451.5,87.5 Z"/></g>
<g><path style="opacity:0.004" fill="#0de0dd" d="M 309.5,90.5 C 308.402,89.3991 308.235,88.0657 309,86.5C 309.49,87.7932 309.657,89.1266 309.5,90.5 Z"/></g>
<g><path style="opacity:0.004" fill="#0d00ff" d="M 448.5,90.5 C 448.833,90.5 449.167,90.5 449.5,90.5C 449.315,91.1701 448.981,91.1701 448.5,90.5 Z"/></g>
<g><path style="opacity:0.004" fill="#577ffe" d="M 182.5,46.5 C 183.662,62.6615 183.828,78.9948 183,95.5C 182.5,79.1701 182.333,62.8367 182.5,46.5 Z"/></g>
<g><path style="opacity:0.004" fill="#0d00ff" d="M 10.5,94.5 C 11.8333,95.1667 11.8333,95.1667 10.5,94.5 Z"/></g>
<g><path style="opacity:0.004" fill="#2ab8b5" d="M 110.5,94.5 C 111.833,95.5 111.833,96.5 110.5,97.5C 110.5,96.5 110.5,95.5 110.5,94.5 Z"/></g>
<g><path style="opacity:0.004" fill="#13fffa" d="M 109.5,97.5 C 109.833,97.5 110.167,97.5 110.5,97.5C 110.315,98.1701 109.981,98.1701 109.5,97.5 Z"/></g>
<g><path style="opacity:0.004" fill="#0d00ff" d="M 139.5,97.5 C 139.833,97.5 140.167,97.5 140.5,97.5C 140.315,98.1701 139.981,98.1701 139.5,97.5 Z"/></g>
<g><path style="opacity:0.004" fill="#13fffa" d="M 242.5,97.5 C 243.833,98.1667 243.833,98.1667 242.5,97.5 Z"/></g>
<g><path style="opacity:0.004" fill="#13fffa" d="M 343.5,97.5 C 344.833,98.1667 344.833,98.1667 343.5,97.5 Z"/></g>
<g><path style="opacity:0.008" fill="#007b7c" d="M 15.5,102.5 C 15.8333,102.5 16.1667,102.5 16.5,102.5C 16.3147,103.17 15.9813,103.17 15.5,102.5 Z"/></g>
<g><path style="opacity:0.004" fill="#0d00ff" d="M 105.5,103.5 C 105.833,103.5 106.167,103.5 106.5,103.5C 106.315,104.17 105.981,104.17 105.5,103.5 Z"/></g>
<g><path style="opacity:0.016" fill="#3c88bc" d="M 99.5,109.5 C 99.8333,109.5 100.167,109.5 100.5,109.5C 100.315,110.17 99.9813,110.17 99.5,109.5 Z"/></g>
<g><path style="opacity:0.008" fill="#44a6ff" d="M 25.5,113.5 C 25.8333,113.5 26.1667,113.5 26.5,113.5C 26.3147,114.17 25.9813,114.17 25.5,113.5 Z"/></g>
<g><path style="opacity:0.012" fill="#53aaa9" d="M 95.5,113.5 C 95.8333,113.5 96.1667,113.5 96.5,113.5C 96.3147,114.17 95.9813,114.17 95.5,113.5 Z"/></g>
<g><path style="opacity:0.004" fill="#040000" d="M 41.5,124.5 C 41.8966,123.475 42.5632,123.308 43.5,124C 42.9056,124.464 42.2389,124.631 41.5,124.5 Z"/></g>
<g><path style="opacity:0.004" fill="#220f4f" d="M 78.5,124.5 C 78.8966,123.475 79.5632,123.308 80.5,124C 79.9056,124.464 79.2389,124.631 78.5,124.5 Z"/></g>
</svg>
