<?xml version="1.0" encoding="UTF-8"?>
<!DOCTYPE svg PUBLIC "-//W3C//DTD SVG 1.1//EN" "http://www.w3.org/Graphics/SVG/1.1/DTD/svg11.dtd">
<svg xmlns="http://www.w3.org/2000/svg" version="1.1" width="452px" height="128px" style="shape-rendering:geometricPrecision; text-rendering:geometricPrecision; image-rendering:optimizeQuality; fill-rule:evenodd; clip-rule:evenodd" xmlns:xlink="http://www.w3.org/1999/xlink">
<g><path style="opacity:0.957" fill="#ff5b34" d="M 297.5,-0.5 C 300.833,-0.5 304.167,-0.5 307.5,-0.5C 313.602,2.70525 316.269,7.70525 315.5,14.5C 328.595,25.9322 342.262,36.5988 356.5,46.5C 360.909,43.9637 365.576,41.9637 370.5,40.5C 371.662,35.8687 371.828,31.202 371,26.5C 362.08,18.3543 362.58,10.8543 372.5,4C 381.882,2.06317 387.548,5.72984 389.5,15C 389.02,19.7948 386.853,23.6281 383,26.5C 382.172,31.202 382.338,35.8687 383.5,40.5C 404.756,47.2581 413.256,61.5914 409,83.5C 400.591,102.788 386.091,109.954 365.5,105C 362.588,103.627 359.754,102.127 357,100.5C 353.333,104.167 349.667,107.833 346,111.5C 346.854,120.141 343.021,125.141 334.5,126.5C 326.072,124.982 322.572,119.982 324,111.5C 326.439,105.449 330.773,103.116 337,104.5C 341.167,100.333 345.333,96.1667 349.5,92C 341.898,80.1045 341.565,67.9378 348.5,55.5C 335.5,45.3333 322.5,35.1667 309.5,25C 295.019,28.3174 288.519,22.4841 290,7.5C 291.69,3.97911 294.19,1.31244 297.5,-0.5 Z M 371.5,57.5 C 386.313,56.1502 393.479,62.8168 393,77.5C 387.675,89.5904 379.175,92.7571 367.5,87C 357.242,75.5628 358.575,65.7295 371.5,57.5 Z"/></g>
<g><path style="opacity:0.97" fill="#203242" d="M -0.5,20.5 C 4.83333,20.5 10.1667,20.5 15.5,20.5C 15.5,32.5 15.5,44.5 15.5,56.5C 26.1667,56.5 36.8333,56.5 47.5,56.5C 47.5,44.5 47.5,32.5 47.5,20.5C 53.1667,20.5 58.8333,20.5 64.5,20.5C 64.5,49.5 64.5,78.5 64.5,107.5C 58.8333,107.5 53.1667,107.5 47.5,107.5C 47.5,95.8333 47.5,84.1667 47.5,72.5C 36.8333,72.5 26.1667,72.5 15.5,72.5C 15.5,84.1667 15.5,95.8333 15.5,107.5C 10.1667,107.5 4.83333,107.5 -0.5,107.5C -0.5,78.5 -0.5,49.5 -0.5,20.5 Z"/></g>
<g><path style="opacity:0.964" fill="#203242" d="M 228.5,20.5 C 237.841,19.2826 246.508,21.1159 254.5,26C 256.557,27.7194 258.224,29.7194 259.5,32C 256.515,36.1359 253.182,39.9692 249.5,43.5C 243.962,37.2145 237.295,35.3811 229.5,38C 224.167,42.6667 224.167,47.3333 229.5,52C 237.979,54.2412 245.979,57.5745 253.5,62C 264.765,75.94 264.099,89.2733 251.5,102C 234.39,111.044 219.39,108.378 206.5,94C 210.348,89.9844 214.348,86.1511 218.5,82.5C 224.169,90.6706 231.503,92.8373 240.5,89C 244.034,84.9244 244.367,80.591 241.5,76C 232.328,72.0521 223.328,67.7187 214.5,63C 207.506,53.0818 206.673,42.5818 212,31.5C 216.344,25.9238 221.844,22.2571 228.5,20.5 Z"/></g>
<g><path style="opacity:0.96" fill="#203242" d="M 138.5,20.5 C 143.833,20.5 149.167,20.5 154.5,20.5C 154.334,29.5062 154.5,38.5062 155,47.5C 172.923,38.1473 187.589,41.814 199,58.5C 207.523,80.6145 201.023,96.4478 179.5,106C 157.971,110.122 144.471,101.622 139,80.5C 138.5,60.5028 138.333,40.5028 138.5,20.5 Z M 167.5,58.5 C 185.034,59.2254 190.867,67.8921 185,84.5C 175.29,94.1113 165.956,93.778 157,83.5C 152.3,71.5801 155.8,63.2468 167.5,58.5 Z"/></g>
<g><path style="opacity:0.973" fill="#203242" d="M 451.5,92.5 C 451.5,93.1667 451.5,93.8333 451.5,94.5C 450.186,98.3864 448.853,102.386 447.5,106.5C 438.893,108.389 431.059,106.723 424,101.5C 422.414,99.3295 421.08,96.9962 420,94.5C 418.893,83.5466 418.393,72.5466 418.5,61.5C 418.833,52.1667 419.167,42.8333 419.5,33.5C 424.308,31.0668 429.141,28.7335 434,26.5C 434.499,32.4908 434.666,38.4908 434.5,44.5C 439.167,44.5 443.833,44.5 448.5,44.5C 448.5,49.1667 448.5,53.8333 448.5,58.5C 443.833,58.5 439.167,58.5 434.5,58.5C 434.105,68.5657 434.605,78.5657 436,88.5C 437.214,90.0488 438.714,91.2155 440.5,92C 444.152,92.4986 447.818,92.6653 451.5,92.5 Z"/></g>
<g><path style="opacity:0.962" fill="#203242" d="M 285.5,127.5 C 280.167,127.5 274.833,127.5 269.5,127.5C 269.333,108.497 269.5,89.4971 270,70.5C 273.579,49.2533 286.079,39.7533 307.5,42C 328.342,48.1879 336.842,62.0212 333,83.5C 325.187,103.322 311.021,110.155 290.5,104C 288.91,102.954 287.41,101.787 286,100.5C 285.5,109.494 285.334,118.494 285.5,127.5 Z M 297.5,57.5 C 309.869,56.3766 317.202,61.8766 319.5,74C 317.533,85.3078 310.866,90.6411 299.5,90C 286.775,85.376 283.275,76.876 289,64.5C 291.441,61.5464 294.275,59.2131 297.5,57.5 Z"/></g>
<g><path style="opacity:0.978" fill="#203242" d="M 73.5,41.5 C 78.5,41.5 83.5,41.5 88.5,41.5C 88.3334,54.5043 88.5001,67.5043 89,80.5C 91.826,90.163 97.9926,93.3297 107.5,90C 110,88.8333 111.833,87 113,84.5C 114.43,70.2257 114.93,55.8923 114.5,41.5C 119.5,41.5 124.5,41.5 129.5,41.5C 129.954,57.5707 129.454,73.5707 128,89.5C 120.667,104.582 108.834,110.082 92.5,106C 84.4195,102.921 78.5862,97.4205 75,89.5C 73.5456,73.5707 73.0456,57.5707 73.5,41.5 Z"/></g>
</svg>
