<?xml version="1.0" encoding="UTF-8"?>
<!DOCTYPE svg PUBLIC "-//W3C//DTD SVG 1.1//EN" "http://www.w3.org/Graphics/SVG/1.1/DTD/svg11.dtd">
<svg xmlns="http://www.w3.org/2000/svg" version="1.1" width="332px" height="184px" style="shape-rendering:geometricPrecision; text-rendering:geometricPrecision; image-rendering:optimizeQuality; fill-rule:evenodd; clip-rule:evenodd" xmlns:xlink="http://www.w3.org/1999/xlink">
<g><path style="opacity:0.962" fill="#feb900" d="M 135.5,4.5 C 155.169,4.33338 174.836,4.50005 194.5,5C 198,5.83333 200.167,8 201,11.5C 201.499,17.4908 201.666,23.4908 201.5,29.5C 201.5,30.1667 201.5,30.8333 201.5,31.5C 191.271,38.7865 181.605,46.7865 172.5,55.5C 172.167,55.5 171.833,55.5 171.5,55.5C 171.5,49.1667 171.5,42.8333 171.5,36.5C 159.5,36.5 147.5,36.5 135.5,36.5C 135.5,36.1667 135.5,35.8333 135.5,35.5C 135.5,25.1667 135.5,14.8333 135.5,4.5 Z"/></g>
<g><path style="opacity:0.968" fill="#eb4734" d="M 135.5,4.5 C 135.5,14.8333 135.5,25.1667 135.5,35.5C 125.167,35.5 114.833,35.5 104.5,35.5C 114.5,24.8333 124.833,14.5 135.5,4.5 Z"/></g>
<g><path style="opacity:0.984" fill="#01ab47" d="M 134.5,106.5 C 134.5,96.1667 134.5,85.8333 134.5,75.5C 135.167,75.5 135.5,75.1667 135.5,74.5C 147.5,74.5 159.5,74.5 171.5,74.5C 171.5,68.1667 171.5,61.8333 171.5,55.5C 171.833,55.5 172.167,55.5 172.5,55.5C 181.839,63.2675 191.339,70.9342 201,78.5C 201.5,62.8369 201.667,47.1702 201.5,31.5C 201.5,30.8333 201.5,30.1667 201.5,29.5C 207.957,24.8825 214.29,20.0492 220.5,15C 222.701,14.1751 224.534,14.6751 226,16.5C 226.667,42.1667 226.667,67.8333 226,93.5C 223.936,94.5914 221.769,94.7581 219.5,94C 213.759,89.0474 207.926,84.2141 202,79.5C 201.667,86.1667 201.333,92.8333 201,99.5C 200.226,101.939 198.726,103.773 196.5,105C 175.9,106.465 155.234,106.965 134.5,106.5 Z"/></g>
<g><path style="opacity:1" fill="#07842d" d="M 201.5,31.5 C 201.667,47.1702 201.5,62.8369 201,78.5C 191.339,70.9342 181.839,63.2675 172.5,55.5C 181.605,46.7865 191.271,38.7865 201.5,31.5 Z"/></g>
<g><path style="opacity:1" fill="#2683fb" d="M 104.5,35.5 C 114.833,35.5 125.167,35.5 135.5,35.5C 135.5,35.8333 135.5,36.1667 135.5,36.5C 135.5,49.1667 135.5,61.8333 135.5,74.5C 135.5,75.1667 135.167,75.5 134.5,75.5C 124.5,75.5 114.5,75.5 104.5,75.5C 104.5,62.1667 104.5,48.8333 104.5,35.5 Z"/></g>
<g><path style="opacity:0.987" fill="#0066da" d="M 104.5,75.5 C 114.5,75.5 124.5,75.5 134.5,75.5C 134.5,85.8333 134.5,96.1667 134.5,106.5C 127.159,106.666 119.826,106.5 112.5,106C 108.98,105.496 106.48,103.663 105,100.5C 104.5,92.1733 104.334,83.84 104.5,75.5 Z"/></g>
<g><path style="opacity:0.938" fill="#5e6368" d="M 22.5,117.5 C 30.6363,116.613 37.6363,118.946 43.5,124.5C 42.1667,126.5 40.5,128.167 38.5,129.5C 29.1678,122.616 20.6678,123.616 13,132.5C 8.35577,143.787 11.5224,151.953 22.5,157C 31.5566,159.048 37.8899,155.882 41.5,147.5C 36.544,146.506 31.544,146.173 26.5,146.5C 26.5,143.833 26.5,141.167 26.5,138.5C 33.8333,138.5 41.1667,138.5 48.5,138.5C 50.5621,149.12 46.8954,157.287 37.5,163C 18.1316,167.995 6.4649,160.828 2.5,141.5C 3.80442,128.875 10.4711,120.875 22.5,117.5 Z"/></g>
<g><path style="opacity:0.827" fill="#5f6268" d="M 148.5,119.5 C 151.167,119.5 153.833,119.5 156.5,119.5C 156.5,134.5 156.5,149.5 156.5,164.5C 153.881,164.768 151.381,164.435 149,163.5C 148.5,148.837 148.333,134.17 148.5,119.5 Z"/></g>
<g><path style="opacity:0.925" fill="#5e6268" d="M 202.5,121.5 C 205.365,121.055 207.865,121.722 210,123.5C 213.829,131.163 218.163,138.496 223,145.5C 227.333,137.833 231.667,130.167 236,122.5C 238.041,121.577 240.208,121.244 242.5,121.5C 242.5,135.5 242.5,149.5 242.5,163.5C 240.5,163.5 238.5,163.5 236.5,163.5C 236.666,153.828 236.5,144.161 236,134.5C 232.5,140.833 229,147.167 225.5,153.5C 223.647,154.76 221.814,154.76 220,153.5C 216.333,147.167 212.667,140.833 209,134.5C 208.5,144.161 208.334,153.828 208.5,163.5C 206.5,163.5 204.5,163.5 202.5,163.5C 202.5,149.5 202.5,135.5 202.5,121.5 Z"/></g>
<g><path style="opacity:0.911" fill="#5e6268" d="M 314.5,125.5 C 316.5,125.5 318.5,125.5 320.5,125.5C 320.5,128.5 320.5,131.5 320.5,134.5C 322.833,134.5 325.167,134.5 327.5,134.5C 327.5,136.5 327.5,138.5 327.5,140.5C 325.167,140.5 322.833,140.5 320.5,140.5C 320.334,145.844 320.501,151.177 321,156.5C 322.194,158.525 323.694,158.859 325.5,157.5C 326.782,159.179 327.782,161.013 328.5,163C 323.043,165.289 318.543,164.122 315,159.5C 314.5,153.175 314.334,146.842 314.5,140.5C 312.833,140.5 311.167,140.5 309.5,140.5C 309.5,138.5 309.5,136.5 309.5,134.5C 311.167,134.5 312.833,134.5 314.5,134.5C 314.5,131.5 314.5,128.5 314.5,125.5 Z"/></g>
<g><path style="opacity:0.903" fill="#5e6268" d="M 257.5,133.5 C 270.515,131.853 276.849,137.52 276.5,150.5C 269.167,150.5 261.833,150.5 254.5,150.5C 255.682,157.267 259.682,159.767 266.5,158C 268,156.5 269.5,155 271,153.5C 276.697,155.82 276.864,158.653 271.5,162C 261.833,166.867 254.333,164.701 249,155.5C 246.076,145.818 248.909,138.485 257.5,133.5 Z M 258.5,139.5 C 261.187,139.336 263.854,139.503 266.5,140C 268.607,141.264 269.607,143.097 269.5,145.5C 264.489,145.666 259.489,145.499 254.5,145C 255.665,143.008 256.998,141.175 258.5,139.5 Z"/></g>
<g><path style="opacity:0.902" fill="#5e6268" d="M 289.5,133.5 C 302.009,132.344 308.009,138.01 307.5,150.5C 300.137,150.169 292.803,150.503 285.5,151.5C 287.548,157.399 291.548,159.565 297.5,158C 299.64,157.027 301.307,155.527 302.5,153.5C 308.296,154.766 308.962,157.266 304.5,161C 294.015,167.323 285.848,165.156 280,154.5C 277.829,144.854 280.996,137.854 289.5,133.5 Z M 290.5,139.5 C 295.763,138.263 299.43,140.096 301.5,145C 296.467,145.829 291.467,145.662 286.5,144.5C 287.16,142.185 288.493,140.519 290.5,139.5 Z"/></g>
<g><path style="opacity:0.935" fill="#5e6268" d="M 60.5,134.5 C 76.3097,133.137 82.8097,140.137 80,155.5C 75.9364,163.61 69.4364,166.443 60.5,164C 51.4046,159.39 48.5713,152.223 52,142.5C 54.0738,138.923 56.9072,136.256 60.5,134.5 Z M 65.5,140.5 C 73.612,142.974 75.612,147.974 71.5,155.5C 64.4641,159.659 59.7974,157.659 57.5,149.5C 58.1417,144.533 60.8084,141.533 65.5,140.5 Z"/></g>
<g><path style="opacity:0.94" fill="#5e6268" d="M 93.5,134.5 C 109.11,133.057 115.61,140.057 113,155.5C 107.879,164.485 100.379,166.985 90.5,163C 83.3902,157.342 81.5569,150.175 85,141.5C 87.4639,138.519 90.2972,136.186 93.5,134.5 Z M 97.5,140.5 C 105.52,142.206 108.02,146.872 105,154.5C 100.667,159.833 96.3333,159.833 92,154.5C 89.1433,147.892 90.9766,143.225 97.5,140.5 Z"/></g>
<g><path style="opacity:0.944" fill="#5e6268" d="M 125.5,134.5 C 129.911,134.021 134.078,134.688 138,136.5C 140.381,135.565 142.881,135.232 145.5,135.5C 145.912,147.229 145.412,158.896 144,170.5C 138.523,178.655 131.357,180.488 122.5,176C 120.443,174.281 118.776,172.281 117.5,170C 118.286,168.012 119.786,166.846 122,166.5C 124.156,167.985 126.323,169.485 128.5,171C 135.167,171.997 138.334,169.164 138,162.5C 125.406,167.117 117.906,162.784 115.5,149.5C 116.128,142.548 119.461,137.548 125.5,134.5 Z M 130.5,140.5 C 138.314,143.132 140.314,148.132 136.5,155.5C 132.902,159.224 129.236,159.224 125.5,155.5C 121.807,148.579 123.474,143.579 130.5,140.5 Z"/></g>
<g><path style="opacity:0.936" fill="#5e6368" d="M 168.5,134.5 C 178.246,132.754 184.58,136.587 187.5,146C 180.566,148.468 173.899,151.468 167.5,155C 169.336,156.419 171.336,157.586 173.5,158.5C 176.866,156.962 180.199,155.795 183.5,155C 185.612,155.906 186.445,157.406 186,159.5C 179.459,165.126 172.292,165.96 164.5,162C 158.836,156.509 157.336,150.009 160,142.5C 162.098,138.897 164.932,136.23 168.5,134.5 Z M 172.5,140.5 C 174.713,140.848 176.713,141.681 178.5,143C 174.631,145.354 170.631,146.52 166.5,146.5C 167.577,143.423 169.577,141.423 172.5,140.5 Z"/></g>
</svg>
