<?xml version="1.0" encoding="UTF-8"?>
<!DOCTYPE svg PUBLIC "-//W3C//DTD SVG 1.1//EN" "http://www.w3.org/Graphics/SVG/1.1/DTD/svg11.dtd">
<svg xmlns="http://www.w3.org/2000/svg" version="1.1" width="293px" height="204px" style="shape-rendering:geometricPrecision; text-rendering:geometricPrecision; image-rendering:optimizeQuality; fill-rule:evenodd; clip-rule:evenodd" xmlns:xlink="http://www.w3.org/1999/xlink">
<g><path style="opacity:0.991" fill="#04a1e0" d="M 65.5,-0.5 C 72.5,-0.5 79.5,-0.5 86.5,-0.5C 100.369,2.6768 112.036,9.6768 121.5,20.5C 141.037,3.5157 162.37,1.0157 185.5,13C 193.022,17.8554 199.189,24.022 204,31.5C 234.214,21.2429 259.548,28.2429 280,52.5C 287.281,63.1855 291.448,74.8522 292.5,87.5C 292.5,89.5 292.5,91.5 292.5,93.5C 290.392,116.217 279.725,133.717 260.5,146C 246.645,153.198 231.979,155.865 216.5,154C 201.242,175.139 181.242,181.306 156.5,172.5C 148.126,188.831 135.126,199.164 117.5,203.5C 110.833,203.5 104.167,203.5 97.5,203.5C 78.3995,199.074 65.0662,187.741 57.5,169.5C 27.8444,172.501 8.51107,159.834 -0.5,131.5C -0.5,124.833 -0.5,118.167 -0.5,111.5C 2.98363,97.1704 10.9836,86.0037 23.5,78C 13.5085,48.6405 21.1752,24.9738 46.5,7C 52.604,3.58334 58.9373,1.08334 65.5,-0.5 Z"/></g>
<g><path style="opacity:1" fill="#f6fbfd" d="M 164.5,71.5 C 167.572,71.1826 170.572,71.5159 173.5,72.5C 173.167,73.1667 172.833,73.8333 172.5,74.5C 169.855,75.1919 167.355,76.1919 165,77.5C 164.727,79.1012 164.227,80.6012 163.5,82C 165.473,82.4955 167.473,82.6621 169.5,82.5C 169.5,83.8333 169.5,85.1667 169.5,86.5C 167.167,86.5 164.833,86.5 162.5,86.5C 161.145,96.2545 159.312,105.921 157,115.5C 153.907,119.795 149.74,121.462 144.5,120.5C 144.343,119.127 144.51,117.793 145,116.5C 147.147,115.887 149.314,115.221 151.5,114.5C 154.356,105.369 156.356,96.0361 157.5,86.5C 156.167,86.5 154.833,86.5 153.5,86.5C 153.5,85.1667 153.5,83.8333 153.5,82.5C 155.167,82.5 156.833,82.5 158.5,82.5C 158.824,77.8608 160.824,74.1941 164.5,71.5 Z"/></g>
<g><path style="opacity:1" fill="#fefefe" d="M 92.5,72.5 C 94.1667,72.5 95.8333,72.5 97.5,72.5C 97.5,84.5 97.5,96.5 97.5,108.5C 95.8333,108.5 94.1667,108.5 92.5,108.5C 92.5,96.5 92.5,84.5 92.5,72.5 Z"/></g>
<g><path style="opacity:1" fill="#f4fafd" d="M 47.5,82.5 C 51.1817,82.3347 54.8484,82.5014 58.5,83C 61.9711,84.103 62.3044,85.9363 59.5,88.5C 56.3297,86.8047 52.9963,86.3047 49.5,87C 48.2528,88.4936 48.2528,89.9936 49.5,91.5C 54.2985,92.8117 58.4651,95.145 62,98.5C 62.5197,102.627 61.0197,105.794 57.5,108C 52.4733,108.938 47.64,108.438 43,106.5C 42.2465,101.239 43.7465,100.406 47.5,104C 50.1667,104.667 52.8333,104.667 55.5,104C 56.8333,102.333 56.8333,100.667 55.5,99C 50.5847,98.1484 46.418,95.9818 43,92.5C 42.0769,88.0165 43.5769,84.6832 47.5,82.5 Z"/></g>
<g><path style="opacity:1" fill="#f9fcfe" d="M 69.5,82.5 C 73.5138,82.3345 77.5138,82.5012 81.5,83C 83.286,83.7845 84.786,84.9512 86,86.5C 86.4996,93.4921 86.6663,100.492 86.5,107.5C 81.1946,108.442 75.8613,108.609 70.5,108C 65.7762,105.565 64.2762,101.731 66,96.5C 66.8333,95.6667 67.6667,94.8333 68.5,94C 72.6996,92.6326 77.0329,92.1326 81.5,92.5C 81.822,90.2776 81.1554,88.4443 79.5,87C 75.9551,86.2829 72.4551,86.4496 69,87.5C 66.9803,86.9681 66.147,85.6348 66.5,83.5C 67.791,83.7373 68.791,83.404 69.5,82.5 Z"/></g>
<g><path style="opacity:1" fill="#f6fbfd" d="M 109.5,82.5 C 120.837,80.5105 126.17,85.1771 125.5,96.5C 119.833,96.5 114.167,96.5 108.5,96.5C 109.605,104.226 113.939,106.56 121.5,103.5C 124.86,104.405 125.193,105.905 122.5,108C 107.705,111.2 101.205,105.367 103,90.5C 104.305,87.0386 106.471,84.372 109.5,82.5 Z"/></g>
<g><path style="opacity:1" fill="#f6fbfd" d="M 134.5,82.5 C 138.182,82.3347 141.848,82.5014 145.5,83C 148.905,83.9669 149.405,85.8002 147,88.5C 143.704,86.6958 140.204,86.1958 136.5,87C 135.253,88.4936 135.253,89.9936 136.5,91.5C 141.482,92.4333 145.649,94.7666 149,98.5C 150.057,102.886 148.557,106.053 144.5,108C 140.833,108.667 137.167,108.667 133.5,108C 129.511,106.951 128.678,104.784 131,101.5C 134.338,104.318 138.171,105.151 142.5,104C 143.833,102.333 143.833,100.667 142.5,99C 138.161,98.1151 134.327,96.2818 131,93.5C 129.518,88.774 130.685,85.1074 134.5,82.5 Z"/></g>
<g><path style="opacity:1" fill="#f7fcfe" d="M 177.5,82.5 C 191.974,81.7451 197.141,88.4117 193,102.5C 189.268,108.046 184.101,109.879 177.5,108C 175.376,106.878 173.543,105.378 172,103.5C 168.526,94.8596 170.36,87.8596 177.5,82.5 Z"/></g>
<g><path style="opacity:1" fill="#f6fbfd" d="M 199.5,82.5 C 201.766,82.1412 203.599,82.8078 205,84.5C 207.971,82.4331 211.138,82.0998 214.5,83.5C 213.754,84.7362 213.421,86.0695 213.5,87.5C 209.987,86.8757 207.153,87.8757 205,90.5C 204.501,96.4908 204.334,102.491 204.5,108.5C 202.833,108.5 201.167,108.5 199.5,108.5C 199.5,99.8333 199.5,91.1667 199.5,82.5 Z"/></g>
<g><path style="opacity:1" fill="#f6fbfd" d="M 222.5,82.5 C 239.384,82.5267 239.718,84.36 223.5,88C 221.522,91.9331 221.022,96.0998 222,100.5C 222.833,102 224,103.167 225.5,104C 228.865,104.314 232.031,104.481 235,104.5C 235.658,106.108 235.158,107.275 233.5,108C 219.742,110.242 213.909,104.409 216,90.5C 217.305,87.0386 219.471,84.372 222.5,82.5 Z"/></g>
<g><path style="opacity:1" fill="#f9fdfe" d="M 244.5,82.5 C 255.766,80.4345 261.1,85.1012 260.5,96.5C 254.833,96.5 249.167,96.5 243.5,96.5C 243.032,101.867 245.532,104.534 251,104.5C 253.509,103.907 256.009,103.741 258.5,104C 259.337,105.011 259.67,106.178 259.5,107.5C 254.871,108.481 250.204,108.648 245.5,108C 241.23,106.73 238.73,103.896 238,99.5C 236.305,92.2414 238.472,86.5747 244.5,82.5 Z"/></g>
<g><path style="opacity:1" fill="#1da5e1" d="M 111.5,86.5 C 116.709,85.3961 119.709,87.3961 120.5,92.5C 116.5,92.5 112.5,92.5 108.5,92.5C 108.615,90.0532 109.615,88.0532 111.5,86.5 Z"/></g>
<g><path style="opacity:1" fill="#1aa4e1" d="M 179.5,86.5 C 183.355,85.8454 186.188,87.1788 188,90.5C 188.667,93.8333 188.667,97.1667 188,100.5C 184.829,105.414 181.163,105.747 177,101.5C 174.448,95.8495 175.282,90.8495 179.5,86.5 Z"/></g>
<g><path style="opacity:1" fill="#10a3e0" d="M 254.5,89.5 C 254.5,90.5 254.5,91.5 254.5,92.5C 250.833,92.5 247.167,92.5 243.5,92.5C 244.293,87.2241 247.293,85.3908 252.5,87C 253.381,87.7083 254.047,88.5416 254.5,89.5 Z"/></g>
<g><path style="opacity:1" fill="#b8e4f6" d="M 254.5,89.5 C 255.434,90.5676 255.768,91.901 255.5,93.5C 251.298,93.8168 247.298,93.4834 243.5,92.5C 247.167,92.5 250.833,92.5 254.5,92.5C 254.5,91.5 254.5,90.5 254.5,89.5 Z"/></g>
<g><path style="opacity:1" fill="#0ea3e0" d="M 72.5,96.5 C 75.5,96.5 78.5,96.5 81.5,96.5C 81.5,99.1667 81.5,101.833 81.5,104.5C 78.4816,104.665 75.4816,104.498 72.5,104C 69.9142,101.506 69.9142,99.006 72.5,96.5 Z"/></g>
</svg>
