<?xml version="1.0" encoding="UTF-8"?>
<!DOCTYPE svg PUBLIC "-//W3C//DTD SVG 1.1//EN" "http://www.w3.org/Graphics/SVG/1.1/DTD/svg11.dtd">
<svg xmlns="http://www.w3.org/2000/svg" version="1.1" width="232px" height="212px" style="shape-rendering:geometricPrecision; text-rendering:geometricPrecision; image-rendering:optimizeQuality; fill-rule:evenodd; clip-rule:evenodd" xmlns:xlink="http://www.w3.org/1999/xlink">
<g><path style="opacity:0.798" fill="#e2e4e6" d="M 108.5,3.5 C 156.844,5.00922 183.51,29.8426 188.5,78C 184.959,123.373 160.626,148.539 115.5,153.5C 70.5473,148.548 46.214,123.548 42.5,78.5C 45.5031,36.5109 67.5031,11.5109 108.5,3.5 Z"/></g>
<g><path style="opacity:1" fill="#fafcfe" d="M 106.5,5.5 C 142.825,4.23165 167.992,20.2317 182,53.5C 191.481,85.0753 184.315,112.242 160.5,135C 130.479,156.998 100.479,156.998 70.5,135C 44.779,110.195 38.279,81.0279 51,47.5C 62.8266,24.4862 81.3266,10.4862 106.5,5.5 Z"/></g>
<g><path style="opacity:1" fill="#0a8eff" d="M 104.5,11.5 C 144.947,9.8028 170.114,28.4695 180,67.5C 183.153,104.392 167.653,129.558 133.5,143C 100.534,150.019 75.3674,139.186 58,110.5C 43.0666,76.0739 49.9,46.9072 78.5,23C 86.6588,17.7482 95.3255,13.9148 104.5,11.5 Z"/></g>
<g><path style="opacity:1" fill="#fbfdff" d="M 153.5,55.5 C 154.5,55.5 155.5,55.5 156.5,55.5C 156.5,70.8333 156.5,86.1667 156.5,101.5C 149.163,97.7345 142.33,93.0678 136,87.5C 135.333,81.5 135.333,75.5 136,69.5C 142.021,64.9694 147.854,60.3027 153.5,55.5 Z"/></g>
<g><path style="opacity:1" fill="#fefeff" d="M 73.5,55.5 C 91.2607,55.0274 108.927,55.5274 126.5,57C 129.106,58.9384 130.939,61.4384 132,64.5C 132.667,76.5 132.667,88.5 132,100.5C 115.241,101.658 98.4073,101.825 81.5,101C 77.763,99.7189 75.263,97.2189 74,93.5C 73.5001,80.8377 73.3334,68.1711 73.5,55.5 Z"/></g>
<g><path style="opacity:0.932" fill="#038dfe" d="M 6.5,156.5 C 20.1707,156.333 33.8374,156.5 47.5,157C 52.9055,158.98 54.7389,162.814 53,168.5C 43.8027,177.363 34.9694,186.53 26.5,196C 35.2421,196.089 43.9088,196.756 52.5,198C 55.6201,200.408 56.9534,203.574 56.5,207.5C 42.1628,207.667 27.8295,207.5 13.5,207C 9.78817,204.398 8.62151,200.898 10,196.5C 18.8029,186.696 27.9695,177.196 37.5,168C 28.8333,167.667 20.1667,167.333 11.5,167C 8.03243,164.464 6.36577,160.964 6.5,156.5 Z"/></g>
<g><path style="opacity:0.942" fill="#068dfe" d="M 73.5,156.5 C 94.2903,157.069 103.79,167.735 102,188.5C 94.9509,206.741 82.4509,211.907 64.5,204C 53.0766,194.631 50.2432,183.131 56,169.5C 60.0486,162.599 65.8819,158.266 73.5,156.5 Z M 75.5,167.5 C 87.9437,168.45 93.1104,175.117 91,187.5C 86.0781,196.762 78.9114,198.929 69.5,194C 62.6267,187.583 61.7934,180.417 67,172.5C 69.6822,170.415 72.5155,168.748 75.5,167.5 Z"/></g>
<g><path style="opacity:0.94" fill="#048dfe" d="M 125.5,156.5 C 145.948,157.449 155.114,168.115 153,188.5C 145.992,206.729 133.492,211.896 115.5,204C 105.9,196.877 102.4,187.377 105,175.5C 108.234,165.093 115.067,158.76 125.5,156.5 Z M 126.5,167.5 C 138.944,168.45 144.11,175.117 142,187.5C 137.078,196.762 129.911,198.929 120.5,194C 111.453,182.646 113.453,173.812 126.5,167.5 Z"/></g>
<g><path style="opacity:0.946" fill="#028dfe" d="M 155.5,156.5 C 158.686,156.895 161.686,157.895 164.5,159.5C 173.516,154.979 181.849,155.979 189.5,162.5C 202.053,153.412 212.887,155.079 222,167.5C 222.667,169.5 223.333,171.5 224,173.5C 224.5,184.828 224.667,196.162 224.5,207.5C 220.808,208.029 217.642,207.029 215,204.5C 213.742,194.573 213.076,184.573 213,174.5C 210.246,168.373 205.746,166.54 199.5,169C 197.951,170.214 196.785,171.714 196,173.5C 195.5,184.828 195.333,196.162 195.5,207.5C 191.808,208.029 188.642,207.029 186,204.5C 184.718,194.933 184.051,185.266 184,175.5C 179.786,166.196 174.119,165.196 167,172.5C 165.767,182.775 165.1,193.108 165,203.5C 162.761,206.962 159.594,208.295 155.5,207.5C 155.5,190.5 155.5,173.5 155.5,156.5 Z"/></g>
</svg>
